<?xml version="1.0" encoding="UTF-8" standalone="no"?>
<!DOCTYPE svg PUBLIC "-//W3C//DTD SVG 1.1//EN"
 "http://www.w3.org/Graphics/SVG/1.1/DTD/svg11.dtd">
<!-- Generated by graphviz version 9.0.0 (20230911.1827)
 -->
<!-- Pages: 1 -->
<svg width="242pt" height="564pt"
 viewBox="0.00 0.00 242.00 564.00" xmlns="http://www.w3.org/2000/svg" xmlns:xlink="http://www.w3.org/1999/xlink">
<g id="graph0" class="graph" transform="scale(1 1) rotate(0) translate(4 560)">
<polygon fill="white" stroke="none" points="-4,4 -4,-560 238,-560 238,4 -4,4"/>
<!-- Node0x600002ce91c0 -->
<g id="node1" class="node">
<title>Node0x600002ce91c0</title>
<polygon fill="none" stroke="black" stroke-width="2" points="99,-556 45,-556 45,-520 99,-520 99,-556"/>
<text text-anchor="middle" x="72" y="-532.95" font-family="Times,serif" font-size="14.00">*</text>
</g>
<!-- Node0x600002ce9220 -->
<g id="node2" class="node">
<title>Node0x600002ce9220</title>
<polygon fill="none" stroke="black" stroke-width="2" points="54,-426 0,-426 0,-390 54,-390 54,-426"/>
<text text-anchor="middle" x="27" y="-402.95" font-family="Times,serif" font-size="14.00">&#45;1</text>
</g>
<!-- Node0x600002ce91c0&#45;&gt;Node0x600002ce9220 -->
<g id="edge1" class="edge">
<title>Node0x600002ce91c0&#45;&gt;Node0x600002ce9220</title>
<path fill="none" stroke="darkgrey" stroke-width="1.2" d="M65.74,-519.2C58.86,-499.62 47.63,-467.68 39.03,-443.21"/>
<polygon fill="darkgrey" stroke="darkgrey" stroke-width="1.2" points="44.4,-441.6 33.81,-428.36 33.83,-445.31 44.4,-441.6"/>
</g>
<!-- Node0x600002ce9300 -->
<g id="node3" class="node">
<title>Node0x600002ce9300</title>
<polygon fill="none" stroke="black" stroke-width="2" points="144,-426 90,-426 90,-390 144,-390 144,-426"/>
<text text-anchor="middle" x="117" y="-402.95" font-family="Times,serif" font-size="14.00">*</text>
</g>
<!-- Node0x600002ce91c0&#45;&gt;Node0x600002ce9300 -->
<g id="edge2" class="edge">
<title>Node0x600002ce91c0&#45;&gt;Node0x600002ce9300</title>
<path fill="none" stroke="darkgrey" stroke-width="1.2" d="M78.26,-519.2C85.14,-499.62 96.37,-467.68 104.97,-443.21"/>
<polygon fill="darkgrey" stroke="darkgrey" stroke-width="1.2" points="110.17,-445.31 110.19,-428.36 99.6,-441.6 110.17,-445.31"/>
</g>
<!-- Node0x600002ce9260 -->
<g id="node4" class="node">
<title>Node0x600002ce9260</title>
<polygon fill="none" stroke="black" stroke-width="2" points="99,-296 45,-296 45,-260 99,-260 99,-296"/>
<text text-anchor="middle" x="72" y="-272.95" font-family="Times,serif" font-size="14.00">2</text>
</g>
<!-- Node0x600002ce9300&#45;&gt;Node0x600002ce9260 -->
<g id="edge3" class="edge">
<title>Node0x600002ce9300&#45;&gt;Node0x600002ce9260</title>
<path fill="none" stroke="darkgrey" stroke-width="1.2" d="M110.74,-389.2C103.86,-369.62 92.63,-337.68 84.03,-313.21"/>
<polygon fill="darkgrey" stroke="darkgrey" stroke-width="1.2" points="89.4,-311.6 78.81,-298.36 78.83,-315.31 89.4,-311.6"/>
</g>
<!-- Node0x600002ce92e0 -->
<g id="node5" class="node">
<title>Node0x600002ce92e0</title>
<polygon fill="none" stroke="black" stroke-width="2" points="189,-296 135,-296 135,-260 189,-260 189,-296"/>
<text text-anchor="middle" x="162" y="-272.95" font-family="Times,serif" font-size="14.00">sin</text>
</g>
<!-- Node0x600002ce9300&#45;&gt;Node0x600002ce92e0 -->
<g id="edge4" class="edge">
<title>Node0x600002ce9300&#45;&gt;Node0x600002ce92e0</title>
<path fill="none" stroke="darkgrey" stroke-width="1.2" d="M123.26,-389.2C130.14,-369.62 141.37,-337.68 149.97,-313.21"/>
<polygon fill="darkgrey" stroke="darkgrey" stroke-width="1.2" points="155.17,-315.31 155.19,-298.36 144.6,-311.6 155.17,-315.31"/>
</g>
<!-- Node0x600002ce9280 -->
<g id="node6" class="node">
<title>Node0x600002ce9280</title>
<polygon fill="none" stroke="black" stroke-width="2" points="189,-166 135,-166 135,-130 189,-130 189,-166"/>
<text text-anchor="middle" x="162" y="-142.95" font-family="Times,serif" font-size="14.00">*</text>
</g>
<!-- Node0x600002ce92e0&#45;&gt;Node0x600002ce9280 -->
<g id="edge5" class="edge">
<title>Node0x600002ce92e0&#45;&gt;Node0x600002ce9280</title>
<path fill="none" stroke="darkgrey" stroke-width="1.2" d="M162,-259.2C162,-239.91 162,-208.61 162,-184.29"/>
<polygon fill="darkgrey" stroke="darkgrey" stroke-width="1.2" points="167.6,-184.46 162,-168.46 156.4,-184.46 167.6,-184.46"/>
</g>
<!-- Node0x600002ce92a0 -->
<g id="node7" class="node">
<title>Node0x600002ce92a0</title>
<polygon fill="none" stroke="black" stroke-width="2" points="144,-36 90,-36 90,0 144,0 144,-36"/>
<text text-anchor="middle" x="117" y="-12.95" font-family="Times,serif" font-size="14.00">2</text>
</g>
<!-- Node0x600002ce9280&#45;&gt;Node0x600002ce92a0 -->
<g id="edge6" class="edge">
<title>Node0x600002ce9280&#45;&gt;Node0x600002ce92a0</title>
<path fill="none" stroke="darkgrey" stroke-width="1.2" d="M155.74,-129.2C148.86,-109.62 137.63,-77.68 129.03,-53.21"/>
<polygon fill="darkgrey" stroke="darkgrey" stroke-width="1.2" points="134.4,-51.6 123.81,-38.36 123.83,-55.31 134.4,-51.6"/>
</g>
<!-- Node0x600002ce92c0 -->
<g id="node8" class="node">
<title>Node0x600002ce92c0</title>
<polygon fill="none" stroke="black" stroke-width="2" points="234,-36 180,-36 180,0 234,0 234,-36"/>
<text text-anchor="middle" x="207" y="-12.95" font-family="Times,serif" font-size="14.00">x</text>
</g>
<!-- Node0x600002ce9280&#45;&gt;Node0x600002ce92c0 -->
<g id="edge7" class="edge">
<title>Node0x600002ce9280&#45;&gt;Node0x600002ce92c0</title>
<path fill="none" stroke="darkgrey" stroke-width="1.2" d="M168.26,-129.2C175.14,-109.62 186.37,-77.68 194.97,-53.21"/>
<polygon fill="darkgrey" stroke="darkgrey" stroke-width="1.2" points="200.17,-55.31 200.19,-38.36 189.6,-51.6 200.17,-55.31"/>
</g>
</g>
</svg>
