<?xml version="1.0" encoding="UTF-8" standalone="no"?>
<!DOCTYPE svg PUBLIC "-//W3C//DTD SVG 1.1//EN"
 "http://www.w3.org/Graphics/SVG/1.1/DTD/svg11.dtd">
<!-- Generated by graphviz version 2.50.0 (20211204.2007)
 -->
<!-- Title: G Pages: 1 -->
<svg width="290pt" height="699pt"
 viewBox="0.00 0.00 290.00 699.00" xmlns="http://www.w3.org/2000/svg" xmlns:xlink="http://www.w3.org/1999/xlink">
<g id="graph0" class="graph" transform="scale(1 1) rotate(0) translate(4 695)">
<title>G</title>
<polygon fill="#ffffff" stroke="transparent" points="-4,4 -4,-695 286,-695 286,4 -4,4"/>
<!-- Node0x60000065d3c0 -->
<g id="node1" class="node">
<title>Node0x60000065d3c0</title>
<polygon fill="#ffffff" stroke="#000000" stroke-width="2" points="114,-654.5 114,-690.5 168,-690.5 168,-654.5 114,-654.5"/>
<text text-anchor="middle" x="141" y="-669.4" font-family="Arial" font-size="12.00" fill="#000000">*</text>
</g>
<!-- Node0x60000065d300 -->
<g id="node2" class="node">
<title>Node0x60000065d300</title>
<polygon fill="#ffffff" stroke="#000000" stroke-width="2" points="76,-545.5 76,-581.5 130,-581.5 130,-545.5 76,-545.5"/>
<text text-anchor="middle" x="103" y="-560.4" font-family="Arial" font-size="12.00" fill="#000000">*</text>
</g>
<!-- Node0x60000065d3c0&#45;&gt;Node0x60000065d300 -->
<g id="edge1" class="edge">
<title>Node0x60000065d3c0&#45;&gt;Node0x60000065d300</title>
<path fill="none" stroke="black" stroke-width="1.1" d="M134.89,-654.31C128.55,-636.45 118.58,-608.36 111.47,-588.36"/>
<polygon fill="black" stroke="black" stroke-width="1.1" points="113.74,-587.43 109.09,-581.65 109.12,-589.07 113.74,-587.43"/>
</g>
<!-- Node0x60000065d3a0 -->
<g id="node13" class="node">
<title>Node0x60000065d3a0</title>
<polygon fill="#ffffff" stroke="#000000" stroke-width="2" points="152,-545.5 152,-581.5 206,-581.5 206,-545.5 152,-545.5"/>
<text text-anchor="middle" x="179" y="-560.4" font-family="Arial" font-size="12.00" fill="#000000">cos</text>
</g>
<!-- Node0x60000065d3c0&#45;&gt;Node0x60000065d3a0 -->
<g id="edge12" class="edge">
<title>Node0x60000065d3c0&#45;&gt;Node0x60000065d3a0</title>
<path fill="none" stroke="black" stroke-width="1.1" d="M147.11,-654.31C153.45,-636.45 163.42,-608.36 170.53,-588.36"/>
<polygon fill="black" stroke="black" stroke-width="1.1" points="172.88,-589.07 172.91,-581.65 168.26,-587.43 172.88,-589.07"/>
</g>
<!-- Node0x60000065d120 -->
<g id="node3" class="node">
<title>Node0x60000065d120</title>
<polygon fill="#ffffff" stroke="#000000" stroke-width="2" points="0,-436.5 0,-472.5 54,-472.5 54,-436.5 0,-436.5"/>
<text text-anchor="middle" x="27" y="-451.4" font-family="Arial" font-size="12.00" fill="#000000">1</text>
</g>
<!-- Node0x60000065d300&#45;&gt;Node0x60000065d120 -->
<g id="edge2" class="edge">
<title>Node0x60000065d300&#45;&gt;Node0x60000065d120</title>
<path fill="none" stroke="black" stroke-width="1.1" d="M90.79,-545.31C77.94,-527.21 57.63,-498.62 43.39,-478.58"/>
<polygon fill="black" stroke="black" stroke-width="1.1" points="45.23,-476.94 39.18,-472.65 41.24,-479.77 45.23,-476.94"/>
</g>
<!-- Node0x60000065d2e0 -->
<g id="node4" class="node">
<title>Node0x60000065d2e0</title>
<polygon fill="#ffffff" stroke="#000000" stroke-width="2" points="76,-436.5 76,-472.5 130,-472.5 130,-436.5 76,-436.5"/>
<text text-anchor="middle" x="103" y="-451.4" font-family="Arial" font-size="12.00" fill="#000000">*</text>
</g>
<!-- Node0x60000065d300&#45;&gt;Node0x60000065d2e0 -->
<g id="edge3" class="edge">
<title>Node0x60000065d300&#45;&gt;Node0x60000065d2e0</title>
<path fill="none" stroke="black" stroke-width="1.1" d="M103,-545.31C103,-527.6 103,-499.85 103,-479.88"/>
<polygon fill="black" stroke="black" stroke-width="1.1" points="105.45,-479.65 103,-472.65 100.55,-479.65 105.45,-479.65"/>
</g>
<!-- Node0x60000065d1e0 -->
<g id="node5" class="node">
<title>Node0x60000065d1e0</title>
<polygon fill="#ffffff" stroke="#000000" stroke-width="2" points="0,-327.5 0,-363.5 54,-363.5 54,-327.5 0,-327.5"/>
<text text-anchor="middle" x="27" y="-342.4" font-family="Arial" font-size="12.00" fill="#000000">ln</text>
</g>
<!-- Node0x60000065d2e0&#45;&gt;Node0x60000065d1e0 -->
<g id="edge4" class="edge">
<title>Node0x60000065d2e0&#45;&gt;Node0x60000065d1e0</title>
<path fill="none" stroke="black" stroke-width="1.1" d="M90.79,-436.31C77.94,-418.21 57.63,-389.62 43.39,-369.58"/>
<polygon fill="black" stroke="black" stroke-width="1.1" points="45.23,-367.94 39.18,-363.65 41.24,-370.77 45.23,-367.94"/>
</g>
<!-- Node0x60000065d2c0 -->
<g id="node7" class="node">
<title>Node0x60000065d2c0</title>
<polygon fill="#ffffff" stroke="#000000" stroke-width="2" points="76,-327.5 76,-363.5 130,-363.5 130,-327.5 76,-327.5"/>
<text text-anchor="middle" x="103" y="-342.4" font-family="Arial" font-size="12.00" fill="#000000">^</text>
</g>
<!-- Node0x60000065d2e0&#45;&gt;Node0x60000065d2c0 -->
<g id="edge6" class="edge">
<title>Node0x60000065d2e0&#45;&gt;Node0x60000065d2c0</title>
<path fill="none" stroke="black" stroke-width="1.1" d="M103,-436.31C103,-418.6 103,-390.85 103,-370.88"/>
<polygon fill="black" stroke="black" stroke-width="1.1" points="105.45,-370.65 103,-363.65 100.55,-370.65 105.45,-370.65"/>
</g>
<!-- Node0x60000065d200 -->
<g id="node6" class="node">
<title>Node0x60000065d200</title>
<polygon fill="#ffffff" stroke="#000000" stroke-width="2" points="0,-218.5 0,-254.5 54,-254.5 54,-218.5 0,-218.5"/>
<text text-anchor="middle" x="27" y="-233.4" font-family="Arial" font-size="12.00" fill="#000000">e</text>
</g>
<!-- Node0x60000065d1e0&#45;&gt;Node0x60000065d200 -->
<g id="edge5" class="edge">
<title>Node0x60000065d1e0&#45;&gt;Node0x60000065d200</title>
<path fill="none" stroke="black" stroke-width="1.1" d="M27,-327.31C27,-309.6 27,-281.85 27,-261.88"/>
<polygon fill="black" stroke="black" stroke-width="1.1" points="29.45,-261.65 27,-254.65 24.55,-261.65 29.45,-261.65"/>
</g>
<!-- Node0x60000065d220 -->
<g id="node8" class="node">
<title>Node0x60000065d220</title>
<polygon fill="#ffffff" stroke="#000000" stroke-width="2" points="76,-218.5 76,-254.5 130,-254.5 130,-218.5 76,-218.5"/>
<text text-anchor="middle" x="103" y="-233.4" font-family="Arial" font-size="12.00" fill="#000000">x</text>
</g>
<!-- Node0x60000065d2c0&#45;&gt;Node0x60000065d220 -->
<g id="edge7" class="edge">
<title>Node0x60000065d2c0&#45;&gt;Node0x60000065d220</title>
<path fill="none" stroke="black" stroke-width="1.1" d="M103,-327.31C103,-309.6 103,-281.85 103,-261.88"/>
<polygon fill="black" stroke="black" stroke-width="1.1" points="105.45,-261.65 103,-254.65 100.55,-261.65 105.45,-261.65"/>
</g>
<!-- Node0x60000065d2a0 -->
<g id="node9" class="node">
<title>Node0x60000065d2a0</title>
<polygon fill="#ffffff" stroke="#000000" stroke-width="2" points="152,-218.5 152,-254.5 206,-254.5 206,-218.5 152,-218.5"/>
<text text-anchor="middle" x="179" y="-233.4" font-family="Arial" font-size="12.00" fill="#000000">&#45;</text>
</g>
<!-- Node0x60000065d2c0&#45;&gt;Node0x60000065d2a0 -->
<g id="edge8" class="edge">
<title>Node0x60000065d2c0&#45;&gt;Node0x60000065d2a0</title>
<path fill="none" stroke="black" stroke-width="1.1" d="M115.21,-327.31C128.06,-309.21 148.37,-280.62 162.61,-260.58"/>
<polygon fill="black" stroke="black" stroke-width="1.1" points="164.76,-261.77 166.82,-254.65 160.77,-258.94 164.76,-261.77"/>
</g>
<!-- Node0x60000065d240 -->
<g id="node10" class="node">
<title>Node0x60000065d240</title>
<polygon fill="#ffffff" stroke="#000000" stroke-width="2" points="114,-109.5 114,-145.5 168,-145.5 168,-109.5 114,-109.5"/>
<text text-anchor="middle" x="141" y="-124.4" font-family="Arial" font-size="12.00" fill="#000000">ln</text>
</g>
<!-- Node0x60000065d2a0&#45;&gt;Node0x60000065d240 -->
<g id="edge9" class="edge">
<title>Node0x60000065d2a0&#45;&gt;Node0x60000065d240</title>
<path fill="none" stroke="black" stroke-width="1.1" d="M172.89,-218.31C166.55,-200.45 156.58,-172.36 149.47,-152.36"/>
<polygon fill="black" stroke="black" stroke-width="1.1" points="151.74,-151.43 147.09,-145.65 147.12,-153.07 151.74,-151.43"/>
</g>
<!-- Node0x60000065d280 -->
<g id="node12" class="node">
<title>Node0x60000065d280</title>
<polygon fill="#ffffff" stroke="#000000" stroke-width="2" points="190,-109.5 190,-145.5 244,-145.5 244,-109.5 190,-109.5"/>
<text text-anchor="middle" x="217" y="-124.4" font-family="Arial" font-size="12.00" fill="#000000">1</text>
</g>
<!-- Node0x60000065d2a0&#45;&gt;Node0x60000065d280 -->
<g id="edge11" class="edge">
<title>Node0x60000065d2a0&#45;&gt;Node0x60000065d280</title>
<path fill="none" stroke="black" stroke-width="1.1" d="M185.11,-218.31C191.45,-200.45 201.42,-172.36 208.53,-152.36"/>
<polygon fill="black" stroke="black" stroke-width="1.1" points="210.88,-153.07 210.91,-145.65 206.26,-151.43 210.88,-153.07"/>
</g>
<!-- Node0x60000065d260 -->
<g id="node11" class="node">
<title>Node0x60000065d260</title>
<polygon fill="#ffffff" stroke="#000000" stroke-width="2" points="114,-0.5 114,-36.5 168,-36.5 168,-0.5 114,-0.5"/>
<text text-anchor="middle" x="141" y="-15.4" font-family="Arial" font-size="12.00" fill="#000000">e</text>
</g>
<!-- Node0x60000065d240&#45;&gt;Node0x60000065d260 -->
<g id="edge10" class="edge">
<title>Node0x60000065d240&#45;&gt;Node0x60000065d260</title>
<path fill="none" stroke="black" stroke-width="1.1" d="M141,-109.31C141,-91.6 141,-63.85 141,-43.88"/>
<polygon fill="black" stroke="black" stroke-width="1.1" points="143.45,-43.65 141,-36.65 138.55,-43.65 143.45,-43.65"/>
</g>
<!-- Node0x60000065d320 -->
<g id="node14" class="node">
<title>Node0x60000065d320</title>
<polygon fill="#ffffff" stroke="#000000" stroke-width="2" points="152,-436.5 152,-472.5 206,-472.5 206,-436.5 152,-436.5"/>
<text text-anchor="middle" x="179" y="-451.4" font-family="Arial" font-size="12.00" fill="#000000">^</text>
</g>
<!-- Node0x60000065d3a0&#45;&gt;Node0x60000065d320 -->
<g id="edge13" class="edge">
<title>Node0x60000065d3a0&#45;&gt;Node0x60000065d320</title>
<path fill="none" stroke="black" stroke-width="1.1" d="M179,-545.31C179,-527.6 179,-499.85 179,-479.88"/>
<polygon fill="black" stroke="black" stroke-width="1.1" points="181.45,-479.65 179,-472.65 176.55,-479.65 181.45,-479.65"/>
</g>
<!-- Node0x60000065d340 -->
<g id="node15" class="node">
<title>Node0x60000065d340</title>
<polygon fill="#ffffff" stroke="#000000" stroke-width="2" points="152,-327.5 152,-363.5 206,-363.5 206,-327.5 152,-327.5"/>
<text text-anchor="middle" x="179" y="-342.4" font-family="Arial" font-size="12.00" fill="#000000">x</text>
</g>
<!-- Node0x60000065d320&#45;&gt;Node0x60000065d340 -->
<g id="edge14" class="edge">
<title>Node0x60000065d320&#45;&gt;Node0x60000065d340</title>
<path fill="none" stroke="black" stroke-width="1.1" d="M179,-436.31C179,-418.6 179,-390.85 179,-370.88"/>
<polygon fill="black" stroke="black" stroke-width="1.1" points="181.45,-370.65 179,-363.65 176.55,-370.65 181.45,-370.65"/>
</g>
<!-- Node0x60000065d360 -->
<g id="node16" class="node">
<title>Node0x60000065d360</title>
<polygon fill="#ffffff" stroke="#000000" stroke-width="2" points="228,-327.5 228,-363.5 282,-363.5 282,-327.5 228,-327.5"/>
<text text-anchor="middle" x="255" y="-342.4" font-family="Arial" font-size="12.00" fill="#000000">ln</text>
</g>
<!-- Node0x60000065d320&#45;&gt;Node0x60000065d360 -->
<g id="edge15" class="edge">
<title>Node0x60000065d320&#45;&gt;Node0x60000065d360</title>
<path fill="none" stroke="black" stroke-width="1.1" d="M191.21,-436.31C204.06,-418.21 224.37,-389.62 238.61,-369.58"/>
<polygon fill="black" stroke="black" stroke-width="1.1" points="240.76,-370.77 242.82,-363.65 236.77,-367.94 240.76,-370.77"/>
</g>
<!-- Node0x60000065d380 -->
<g id="node17" class="node">
<title>Node0x60000065d380</title>
<polygon fill="#ffffff" stroke="#000000" stroke-width="2" points="228,-218.5 228,-254.5 282,-254.5 282,-218.5 228,-218.5"/>
<text text-anchor="middle" x="255" y="-233.4" font-family="Arial" font-size="12.00" fill="#000000">e</text>
</g>
<!-- Node0x60000065d360&#45;&gt;Node0x60000065d380 -->
<g id="edge16" class="edge">
<title>Node0x60000065d360&#45;&gt;Node0x60000065d380</title>
<path fill="none" stroke="black" stroke-width="1.1" d="M255,-327.31C255,-309.6 255,-281.85 255,-261.88"/>
<polygon fill="black" stroke="black" stroke-width="1.1" points="257.45,-261.65 255,-254.65 252.55,-261.65 257.45,-261.65"/>
</g>
</g>
</svg>
