<?xml version="1.0" encoding="UTF-8" standalone="no"?>
<!DOCTYPE svg PUBLIC "-//W3C//DTD SVG 1.1//EN"
 "http://www.w3.org/Graphics/SVG/1.1/DTD/svg11.dtd">
<!-- Generated by graphviz version 2.50.0 (20211204.2007)
 -->
<!-- Title: G Pages: 1 -->
<svg width="138pt" height="154pt"
 viewBox="0.00 0.00 138.00 154.00" xmlns="http://www.w3.org/2000/svg" xmlns:xlink="http://www.w3.org/1999/xlink">
<g id="graph0" class="graph" transform="scale(1 1) rotate(0) translate(4 150)">
<title>G</title>
<polygon fill="#ffffff" stroke="transparent" points="-4,4 -4,-150 134,-150 134,4 -4,4"/>
<!-- Node0x6000002740e0 -->
<g id="node1" class="node">
<title>Node0x6000002740e0</title>
<polygon fill="#ffffff" stroke="#000000" stroke-width="2" points="38,-109.5 38,-145.5 92,-145.5 92,-109.5 38,-109.5"/>
<text text-anchor="middle" x="65" y="-124.4" font-family="Arial" font-size="12.00" fill="#000000">*</text>
</g>
<!-- Node0x600000274020 -->
<g id="node2" class="node">
<title>Node0x600000274020</title>
<polygon fill="#ffffff" stroke="#000000" stroke-width="2" points="0,-0.5 0,-36.5 54,-36.5 54,-0.5 0,-0.5"/>
<text text-anchor="middle" x="27" y="-15.4" font-family="Arial" font-size="12.00" fill="#000000">2</text>
</g>
<!-- Node0x6000002740e0&#45;&gt;Node0x600000274020 -->
<g id="edge1" class="edge">
<title>Node0x6000002740e0&#45;&gt;Node0x600000274020</title>
<path fill="none" stroke="black" stroke-width="1.1" d="M58.89,-109.31C52.55,-91.45 42.58,-63.36 35.47,-43.36"/>
<polygon fill="black" stroke="black" stroke-width="1.1" points="37.74,-42.43 33.09,-36.65 33.12,-44.07 37.74,-42.43"/>
</g>
<!-- Node0x600000274040 -->
<g id="node3" class="node">
<title>Node0x600000274040</title>
<polygon fill="#ffffff" stroke="#000000" stroke-width="2" points="76,-0.5 76,-36.5 130,-36.5 130,-0.5 76,-0.5"/>
<text text-anchor="middle" x="103" y="-15.4" font-family="Arial" font-size="12.00" fill="#000000">x</text>
</g>
<!-- Node0x6000002740e0&#45;&gt;Node0x600000274040 -->
<g id="edge2" class="edge">
<title>Node0x6000002740e0&#45;&gt;Node0x600000274040</title>
<path fill="none" stroke="black" stroke-width="1.1" d="M71.11,-109.31C77.45,-91.45 87.42,-63.36 94.53,-43.36"/>
<polygon fill="black" stroke="black" stroke-width="1.1" points="96.88,-44.07 96.91,-36.65 92.26,-42.43 96.88,-44.07"/>
</g>
</g>
</svg>
