<?xml version="1.0" encoding="UTF-8" standalone="no"?>
<!DOCTYPE svg PUBLIC "-//W3C//DTD SVG 1.1//EN"
 "http://www.w3.org/Graphics/SVG/1.1/DTD/svg11.dtd">
<!-- Generated by graphviz version 2.50.0 (20211204.2007)
 -->
<!-- Pages: 1 -->
<svg width="332pt" height="694pt"
 viewBox="0.00 0.00 332.00 694.00" xmlns="http://www.w3.org/2000/svg" xmlns:xlink="http://www.w3.org/1999/xlink">
<g id="graph0" class="graph" transform="scale(1 1) rotate(0) translate(4 690)">
<polygon fill="white" stroke="transparent" points="-4,4 -4,-690 328,-690 328,4 -4,4"/>
<!-- Node0x600003089200 -->
<g id="node1" class="node">
<title>Node0x600003089200</title>
<polygon fill="none" stroke="black" stroke-width="2" points="189,-686 135,-686 135,-650 189,-650 189,-686"/>
<text text-anchor="middle" x="162" y="-664.3" font-family="Times,serif" font-size="14.00">*</text>
</g>
<!-- Node0x60000308c040 -->
<g id="node2" class="node">
<title>Node0x60000308c040</title>
<polygon fill="none" stroke="black" stroke-width="2" points="144,-556 90,-556 90,-520 144,-520 144,-556"/>
<text text-anchor="middle" x="117" y="-534.3" font-family="Times,serif" font-size="14.00">*</text>
</g>
<!-- Node0x600003089200&#45;&gt;Node0x60000308c040 -->
<g id="edge1" class="edge">
<title>Node0x600003089200&#45;&gt;Node0x60000308c040</title>
<path fill="none" stroke="darkgrey" stroke-width="1.2" d="M155.93,-649.74C148.92,-629.79 137.23,-596.53 128.48,-571.66"/>
<polygon fill="darkgrey" stroke="darkgrey" stroke-width="1.2" points="133.71,-569.63 123.12,-556.4 123.14,-573.35 133.71,-569.63"/>
</g>
<!-- Node0x60000308c0c0 -->
<g id="node11" class="node">
<title>Node0x60000308c0c0</title>
<polygon fill="none" stroke="black" stroke-width="2" points="234,-556 180,-556 180,-520 234,-520 234,-556"/>
<text text-anchor="middle" x="207" y="-534.3" font-family="Times,serif" font-size="14.00">cos</text>
</g>
<!-- Node0x600003089200&#45;&gt;Node0x60000308c0c0 -->
<g id="edge10" class="edge">
<title>Node0x600003089200&#45;&gt;Node0x60000308c0c0</title>
<path fill="none" stroke="darkgrey" stroke-width="1.2" d="M168.07,-649.74C175.08,-629.79 186.77,-596.53 195.52,-571.66"/>
<polygon fill="darkgrey" stroke="darkgrey" stroke-width="1.2" points="200.86,-573.35 200.88,-556.4 190.29,-569.63 200.86,-573.35"/>
</g>
<!-- Node0x60000308c100 -->
<g id="node3" class="node">
<title>Node0x60000308c100</title>
<polygon fill="none" stroke="black" stroke-width="2" points="54,-426 0,-426 0,-390 54,-390 54,-426"/>
<text text-anchor="middle" x="27" y="-404.3" font-family="Times,serif" font-size="14.00">1</text>
</g>
<!-- Node0x60000308c040&#45;&gt;Node0x60000308c100 -->
<g id="edge2" class="edge">
<title>Node0x60000308c040&#45;&gt;Node0x60000308c100</title>
<path fill="none" stroke="darkgrey" stroke-width="1.2" d="M104.86,-519.74C90.44,-499.22 66.1,-464.61 48.47,-439.54"/>
<polygon fill="darkgrey" stroke="darkgrey" stroke-width="1.2" points="53.02,-436.27 39.23,-426.4 43.85,-442.71 53.02,-436.27"/>
</g>
<!-- Node0x60000308c1e0 -->
<g id="node4" class="node">
<title>Node0x60000308c1e0</title>
<polygon fill="none" stroke="black" stroke-width="2" points="144,-426 90,-426 90,-390 144,-390 144,-426"/>
<text text-anchor="middle" x="117" y="-404.3" font-family="Times,serif" font-size="14.00">*</text>
</g>
<!-- Node0x60000308c040&#45;&gt;Node0x60000308c1e0 -->
<g id="edge3" class="edge">
<title>Node0x60000308c040&#45;&gt;Node0x60000308c1e0</title>
<path fill="none" stroke="darkgrey" stroke-width="1.2" d="M117,-519.74C117,-500.08 117,-467.49 117,-442.74"/>
<polygon fill="darkgrey" stroke="darkgrey" stroke-width="1.2" points="122.6,-442.4 117,-426.4 111.4,-442.4 122.6,-442.4"/>
</g>
<!-- Node0x60000308c120 -->
<g id="node5" class="node">
<title>Node0x60000308c120</title>
<polygon fill="none" stroke="black" stroke-width="2" points="54,-296 0,-296 0,-260 54,-260 54,-296"/>
<text text-anchor="middle" x="27" y="-274.3" font-family="Times,serif" font-size="14.00">2</text>
</g>
<!-- Node0x60000308c1e0&#45;&gt;Node0x60000308c120 -->
<g id="edge4" class="edge">
<title>Node0x60000308c1e0&#45;&gt;Node0x60000308c120</title>
<path fill="none" stroke="darkgrey" stroke-width="1.2" d="M104.86,-389.74C90.44,-369.22 66.1,-334.61 48.47,-309.54"/>
<polygon fill="darkgrey" stroke="darkgrey" stroke-width="1.2" points="53.02,-306.27 39.23,-296.4 43.85,-312.71 53.02,-306.27"/>
</g>
<!-- Node0x60000308c1c0 -->
<g id="node6" class="node">
<title>Node0x60000308c1c0</title>
<polygon fill="none" stroke="black" stroke-width="2" points="144,-296 90,-296 90,-260 144,-260 144,-296"/>
<text text-anchor="middle" x="117" y="-274.3" font-family="Times,serif" font-size="14.00">^</text>
</g>
<!-- Node0x60000308c1e0&#45;&gt;Node0x60000308c1c0 -->
<g id="edge5" class="edge">
<title>Node0x60000308c1e0&#45;&gt;Node0x60000308c1c0</title>
<path fill="none" stroke="darkgrey" stroke-width="1.2" d="M117,-389.74C117,-370.08 117,-337.49 117,-312.74"/>
<polygon fill="darkgrey" stroke="darkgrey" stroke-width="1.2" points="122.6,-312.4 117,-296.4 111.4,-312.4 122.6,-312.4"/>
</g>
<!-- Node0x60000308c140 -->
<g id="node7" class="node">
<title>Node0x60000308c140</title>
<polygon fill="none" stroke="black" stroke-width="2" points="99,-166 45,-166 45,-130 99,-130 99,-166"/>
<text text-anchor="middle" x="72" y="-144.3" font-family="Times,serif" font-size="14.00">x</text>
</g>
<!-- Node0x60000308c1c0&#45;&gt;Node0x60000308c140 -->
<g id="edge6" class="edge">
<title>Node0x60000308c1c0&#45;&gt;Node0x60000308c140</title>
<path fill="none" stroke="darkgrey" stroke-width="1.2" d="M110.93,-259.74C103.92,-239.79 92.23,-206.53 83.48,-181.66"/>
<polygon fill="darkgrey" stroke="darkgrey" stroke-width="1.2" points="88.71,-179.63 78.12,-166.4 78.14,-183.35 88.71,-179.63"/>
</g>
<!-- Node0x60000308c1a0 -->
<g id="node8" class="node">
<title>Node0x60000308c1a0</title>
<polygon fill="none" stroke="black" stroke-width="2" points="189,-166 135,-166 135,-130 189,-130 189,-166"/>
<text text-anchor="middle" x="162" y="-144.3" font-family="Times,serif" font-size="14.00">&#45;</text>
</g>
<!-- Node0x60000308c1c0&#45;&gt;Node0x60000308c1a0 -->
<g id="edge7" class="edge">
<title>Node0x60000308c1c0&#45;&gt;Node0x60000308c1a0</title>
<path fill="none" stroke="darkgrey" stroke-width="1.2" d="M123.07,-259.74C130.08,-239.79 141.77,-206.53 150.52,-181.66"/>
<polygon fill="darkgrey" stroke="darkgrey" stroke-width="1.2" points="155.86,-183.35 155.88,-166.4 145.29,-179.63 155.86,-183.35"/>
</g>
<!-- Node0x60000308c160 -->
<g id="node9" class="node">
<title>Node0x60000308c160</title>
<polygon fill="none" stroke="black" stroke-width="2" points="144,-36 90,-36 90,0 144,0 144,-36"/>
<text text-anchor="middle" x="117" y="-14.3" font-family="Times,serif" font-size="14.00">2</text>
</g>
<!-- Node0x60000308c1a0&#45;&gt;Node0x60000308c160 -->
<g id="edge8" class="edge">
<title>Node0x60000308c1a0&#45;&gt;Node0x60000308c160</title>
<path fill="none" stroke="darkgrey" stroke-width="1.2" d="M155.93,-129.74C148.92,-109.79 137.23,-76.53 128.48,-51.66"/>
<polygon fill="darkgrey" stroke="darkgrey" stroke-width="1.2" points="133.71,-49.63 123.12,-36.4 123.14,-53.35 133.71,-49.63"/>
</g>
<!-- Node0x60000308c180 -->
<g id="node10" class="node">
<title>Node0x60000308c180</title>
<polygon fill="none" stroke="black" stroke-width="2" points="234,-36 180,-36 180,0 234,0 234,-36"/>
<text text-anchor="middle" x="207" y="-14.3" font-family="Times,serif" font-size="14.00">1</text>
</g>
<!-- Node0x60000308c1a0&#45;&gt;Node0x60000308c180 -->
<g id="edge9" class="edge">
<title>Node0x60000308c1a0&#45;&gt;Node0x60000308c180</title>
<path fill="none" stroke="darkgrey" stroke-width="1.2" d="M168.07,-129.74C175.08,-109.79 186.77,-76.53 195.52,-51.66"/>
<polygon fill="darkgrey" stroke="darkgrey" stroke-width="1.2" points="200.86,-53.35 200.88,-36.4 190.29,-49.63 200.86,-53.35"/>
</g>
<!-- Node0x60000308c060 -->
<g id="node12" class="node">
<title>Node0x60000308c060</title>
<polygon fill="none" stroke="black" stroke-width="2" points="234,-426 180,-426 180,-390 234,-390 234,-426"/>
<text text-anchor="middle" x="207" y="-404.3" font-family="Times,serif" font-size="14.00">^</text>
</g>
<!-- Node0x60000308c0c0&#45;&gt;Node0x60000308c060 -->
<g id="edge11" class="edge">
<title>Node0x60000308c0c0&#45;&gt;Node0x60000308c060</title>
<path fill="none" stroke="darkgrey" stroke-width="1.2" d="M207,-519.74C207,-500.08 207,-467.49 207,-442.74"/>
<polygon fill="darkgrey" stroke="darkgrey" stroke-width="1.2" points="212.6,-442.4 207,-426.4 201.4,-442.4 212.6,-442.4"/>
</g>
<!-- Node0x60000308c080 -->
<g id="node13" class="node">
<title>Node0x60000308c080</title>
<polygon fill="none" stroke="black" stroke-width="2" points="234,-296 180,-296 180,-260 234,-260 234,-296"/>
<text text-anchor="middle" x="207" y="-274.3" font-family="Times,serif" font-size="14.00">x</text>
</g>
<!-- Node0x60000308c060&#45;&gt;Node0x60000308c080 -->
<g id="edge12" class="edge">
<title>Node0x60000308c060&#45;&gt;Node0x60000308c080</title>
<path fill="none" stroke="darkgrey" stroke-width="1.2" d="M207,-389.74C207,-370.08 207,-337.49 207,-312.74"/>
<polygon fill="darkgrey" stroke="darkgrey" stroke-width="1.2" points="212.6,-312.4 207,-296.4 201.4,-312.4 212.6,-312.4"/>
</g>
<!-- Node0x60000308c0a0 -->
<g id="node14" class="node">
<title>Node0x60000308c0a0</title>
<polygon fill="none" stroke="black" stroke-width="2" points="324,-296 270,-296 270,-260 324,-260 324,-296"/>
<text text-anchor="middle" x="297" y="-274.3" font-family="Times,serif" font-size="14.00">2</text>
</g>
<!-- Node0x60000308c060&#45;&gt;Node0x60000308c0a0 -->
<g id="edge13" class="edge">
<title>Node0x60000308c060&#45;&gt;Node0x60000308c0a0</title>
<path fill="none" stroke="darkgrey" stroke-width="1.2" d="M219.14,-389.74C233.56,-369.22 257.9,-334.61 275.53,-309.54"/>
<polygon fill="darkgrey" stroke="darkgrey" stroke-width="1.2" points="280.15,-312.71 284.77,-296.4 270.98,-306.27 280.15,-312.71"/>
</g>
</g>
</svg>
