<?xml version="1.0" encoding="UTF-8" standalone="no"?>
<!DOCTYPE svg PUBLIC "-//W3C//DTD SVG 1.1//EN"
 "http://www.w3.org/Graphics/SVG/1.1/DTD/svg11.dtd">
<!-- Generated by graphviz version 9.0.0 (20230911.1827)
 -->
<!-- Pages: 1 -->
<svg width="197pt" height="434pt"
 viewBox="0.00 0.00 197.00 434.00" xmlns="http://www.w3.org/2000/svg" xmlns:xlink="http://www.w3.org/1999/xlink">
<g id="graph0" class="graph" transform="scale(1 1) rotate(0) translate(4 430)">
<polygon fill="white" stroke="none" points="-4,4 -4,-430 193,-430 193,4 -4,4"/>
<!-- Node0x600002cec0a0 -->
<g id="node1" class="node">
<title>Node0x600002cec0a0</title>
<polygon fill="none" stroke="black" stroke-width="2" points="144,-426 90,-426 90,-390 144,-390 144,-426"/>
<text text-anchor="middle" x="117" y="-402.95" font-family="Times,serif" font-size="14.00">+</text>
</g>
<!-- Node0x600002cec020 -->
<g id="node2" class="node">
<title>Node0x600002cec020</title>
<polygon fill="none" stroke="black" stroke-width="2" points="99,-296 45,-296 45,-260 99,-260 99,-296"/>
<text text-anchor="middle" x="72" y="-272.95" font-family="Times,serif" font-size="14.00">cos</text>
</g>
<!-- Node0x600002cec0a0&#45;&gt;Node0x600002cec020 -->
<g id="edge1" class="edge">
<title>Node0x600002cec0a0&#45;&gt;Node0x600002cec020</title>
<path fill="none" stroke="darkgrey" stroke-width="1.2" d="M110.74,-389.2C103.86,-369.62 92.63,-337.68 84.03,-313.21"/>
<polygon fill="darkgrey" stroke="darkgrey" stroke-width="1.2" points="89.4,-311.6 78.81,-298.36 78.83,-315.31 89.4,-311.6"/>
</g>
<!-- Node0x600002cec0c0 -->
<g id="node6" class="node">
<title>Node0x600002cec0c0</title>
<polygon fill="none" stroke="black" stroke-width="2" points="189,-296 135,-296 135,-260 189,-260 189,-296"/>
<text text-anchor="middle" x="162" y="-272.95" font-family="Times,serif" font-size="14.00">5</text>
</g>
<!-- Node0x600002cec0a0&#45;&gt;Node0x600002cec0c0 -->
<g id="edge5" class="edge">
<title>Node0x600002cec0a0&#45;&gt;Node0x600002cec0c0</title>
<path fill="none" stroke="darkgrey" stroke-width="1.2" d="M123.26,-389.2C130.14,-369.62 141.37,-337.68 149.97,-313.21"/>
<polygon fill="darkgrey" stroke="darkgrey" stroke-width="1.2" points="155.17,-315.31 155.19,-298.36 144.6,-311.6 155.17,-315.31"/>
</g>
<!-- Node0x600002cec060 -->
<g id="node3" class="node">
<title>Node0x600002cec060</title>
<polygon fill="none" stroke="black" stroke-width="2" points="99,-166 45,-166 45,-130 99,-130 99,-166"/>
<text text-anchor="middle" x="72" y="-142.95" font-family="Times,serif" font-size="14.00">*</text>
</g>
<!-- Node0x600002cec020&#45;&gt;Node0x600002cec060 -->
<g id="edge2" class="edge">
<title>Node0x600002cec020&#45;&gt;Node0x600002cec060</title>
<path fill="none" stroke="darkgrey" stroke-width="1.2" d="M72,-259.2C72,-239.91 72,-208.61 72,-184.29"/>
<polygon fill="darkgrey" stroke="darkgrey" stroke-width="1.2" points="77.6,-184.46 72,-168.46 66.4,-184.46 77.6,-184.46"/>
</g>
<!-- Node0x600002cec040 -->
<g id="node4" class="node">
<title>Node0x600002cec040</title>
<polygon fill="none" stroke="black" stroke-width="2" points="54,-36 0,-36 0,0 54,0 54,-36"/>
<text text-anchor="middle" x="27" y="-12.95" font-family="Times,serif" font-size="14.00">2</text>
</g>
<!-- Node0x600002cec060&#45;&gt;Node0x600002cec040 -->
<g id="edge3" class="edge">
<title>Node0x600002cec060&#45;&gt;Node0x600002cec040</title>
<path fill="none" stroke="darkgrey" stroke-width="1.2" d="M65.74,-129.2C58.86,-109.62 47.63,-77.68 39.03,-53.21"/>
<polygon fill="darkgrey" stroke="darkgrey" stroke-width="1.2" points="44.4,-51.6 33.81,-38.36 33.83,-55.31 44.4,-51.6"/>
</g>
<!-- Node0x600002cec080 -->
<g id="node5" class="node">
<title>Node0x600002cec080</title>
<polygon fill="none" stroke="black" stroke-width="2" points="144,-36 90,-36 90,0 144,0 144,-36"/>
<text text-anchor="middle" x="117" y="-12.95" font-family="Times,serif" font-size="14.00">x</text>
</g>
<!-- Node0x600002cec060&#45;&gt;Node0x600002cec080 -->
<g id="edge4" class="edge">
<title>Node0x600002cec060&#45;&gt;Node0x600002cec080</title>
<path fill="none" stroke="darkgrey" stroke-width="1.2" d="M78.26,-129.2C85.14,-109.62 96.37,-77.68 104.97,-53.21"/>
<polygon fill="darkgrey" stroke="darkgrey" stroke-width="1.2" points="110.17,-55.31 110.19,-38.36 99.6,-51.6 110.17,-55.31"/>
</g>
</g>
</svg>
