<?xml version="1.0" encoding="UTF-8" standalone="no"?>
<!DOCTYPE svg PUBLIC "-//W3C//DTD SVG 1.1//EN"
 "http://www.w3.org/Graphics/SVG/1.1/DTD/svg11.dtd">
<!-- Generated by graphviz version 2.50.0 (20211204.2007)
 -->
<!-- Pages: 1 -->
<svg width="512pt" height="694pt"
 viewBox="0.00 0.00 512.00 694.00" xmlns="http://www.w3.org/2000/svg" xmlns:xlink="http://www.w3.org/1999/xlink">
<g id="graph0" class="graph" transform="scale(1 1) rotate(0) translate(4 690)">
<polygon fill="white" stroke="transparent" points="-4,4 -4,-690 508,-690 508,4 -4,4"/>
<!-- Node0x600002b95260 -->
<g id="node1" class="node">
<title>Node0x600002b95260</title>
<polygon fill="none" stroke="black" stroke-width="2" points="324,-686 270,-686 270,-650 324,-650 324,-686"/>
<text text-anchor="middle" x="297" y="-664.3" font-family="Times,serif" font-size="14.00">+</text>
</g>
<!-- Node0x600002b952a0 -->
<g id="node2" class="node">
<title>Node0x600002b952a0</title>
<polygon fill="none" stroke="black" stroke-width="2" points="279,-556 225,-556 225,-520 279,-520 279,-556"/>
<text text-anchor="middle" x="252" y="-534.3" font-family="Times,serif" font-size="14.00">*</text>
</g>
<!-- Node0x600002b95260&#45;&gt;Node0x600002b952a0 -->
<g id="edge1" class="edge">
<title>Node0x600002b95260&#45;&gt;Node0x600002b952a0</title>
<path fill="none" stroke="darkgrey" stroke-width="1.2" d="M290.93,-649.74C283.92,-629.79 272.23,-596.53 263.48,-571.66"/>
<polygon fill="darkgrey" stroke="darkgrey" stroke-width="1.2" points="268.71,-569.63 258.12,-556.4 258.14,-573.35 268.71,-569.63"/>
</g>
<!-- Node0x600002b952e0 -->
<g id="node16" class="node">
<title>Node0x600002b952e0</title>
<polygon fill="none" stroke="black" stroke-width="2" points="369,-556 315,-556 315,-520 369,-520 369,-556"/>
<text text-anchor="middle" x="342" y="-534.3" font-family="Times,serif" font-size="14.00">0</text>
</g>
<!-- Node0x600002b95260&#45;&gt;Node0x600002b952e0 -->
<g id="edge15" class="edge">
<title>Node0x600002b95260&#45;&gt;Node0x600002b952e0</title>
<path fill="none" stroke="darkgrey" stroke-width="1.2" d="M303.07,-649.74C310.08,-629.79 321.77,-596.53 330.52,-571.66"/>
<polygon fill="darkgrey" stroke="darkgrey" stroke-width="1.2" points="335.86,-573.35 335.88,-556.4 325.29,-569.63 335.86,-573.35"/>
</g>
<!-- Node0x600002b95300 -->
<g id="node3" class="node">
<title>Node0x600002b95300</title>
<polygon fill="none" stroke="black" stroke-width="2" points="234,-426 180,-426 180,-390 234,-390 234,-426"/>
<text text-anchor="middle" x="207" y="-404.3" font-family="Times,serif" font-size="14.00">&#45;1</text>
</g>
<!-- Node0x600002b952a0&#45;&gt;Node0x600002b95300 -->
<g id="edge2" class="edge">
<title>Node0x600002b952a0&#45;&gt;Node0x600002b95300</title>
<path fill="none" stroke="darkgrey" stroke-width="1.2" d="M245.93,-519.74C238.92,-499.79 227.23,-466.53 218.48,-441.66"/>
<polygon fill="darkgrey" stroke="darkgrey" stroke-width="1.2" points="223.71,-439.63 213.12,-426.4 213.14,-443.35 223.71,-439.63"/>
</g>
<!-- Node0x600002b953c0 -->
<g id="node4" class="node">
<title>Node0x600002b953c0</title>
<polygon fill="none" stroke="black" stroke-width="2" points="324,-426 270,-426 270,-390 324,-390 324,-426"/>
<text text-anchor="middle" x="297" y="-404.3" font-family="Times,serif" font-size="14.00">*</text>
</g>
<!-- Node0x600002b952a0&#45;&gt;Node0x600002b953c0 -->
<g id="edge3" class="edge">
<title>Node0x600002b952a0&#45;&gt;Node0x600002b953c0</title>
<path fill="none" stroke="darkgrey" stroke-width="1.2" d="M258.07,-519.74C265.08,-499.79 276.77,-466.53 285.52,-441.66"/>
<polygon fill="darkgrey" stroke="darkgrey" stroke-width="1.2" points="290.86,-443.35 290.88,-426.4 280.29,-439.63 290.86,-443.35"/>
</g>
<!-- Node0x600002b95320 -->
<g id="node5" class="node">
<title>Node0x600002b95320</title>
<polygon fill="none" stroke="black" stroke-width="2" points="256,-296 202,-296 202,-260 256,-260 256,-296"/>
<text text-anchor="middle" x="229" y="-274.3" font-family="Times,serif" font-size="14.00">+</text>
</g>
<!-- Node0x600002b953c0&#45;&gt;Node0x600002b95320 -->
<g id="edge4" class="edge">
<title>Node0x600002b953c0&#45;&gt;Node0x600002b95320</title>
<path fill="none" stroke="darkgrey" stroke-width="1.2" d="M287.83,-389.74C277.08,-369.51 259.06,-335.58 245.78,-310.59"/>
<polygon fill="darkgrey" stroke="darkgrey" stroke-width="1.2" points="250.69,-307.9 238.24,-296.4 240.8,-313.16 250.69,-307.9"/>
</g>
<!-- Node0x600002b953a0 -->
<g id="node12" class="node">
<title>Node0x600002b953a0</title>
<polygon fill="none" stroke="black" stroke-width="2" points="391,-296 337,-296 337,-260 391,-260 391,-296"/>
<text text-anchor="middle" x="364" y="-274.3" font-family="Times,serif" font-size="14.00">sin</text>
</g>
<!-- Node0x600002b953c0&#45;&gt;Node0x600002b953a0 -->
<g id="edge11" class="edge">
<title>Node0x600002b953c0&#45;&gt;Node0x600002b953a0</title>
<path fill="none" stroke="darkgrey" stroke-width="1.2" d="M306.04,-389.74C316.63,-369.51 334.39,-335.58 347.46,-310.59"/>
<polygon fill="darkgrey" stroke="darkgrey" stroke-width="1.2" points="352.43,-313.17 354.89,-296.4 342.51,-307.98 352.43,-313.17"/>
</g>
<!-- Node0x600002b95420 -->
<g id="node6" class="node">
<title>Node0x600002b95420</title>
<polygon fill="none" stroke="black" stroke-width="2" points="144,-166 90,-166 90,-130 144,-130 144,-166"/>
<text text-anchor="middle" x="117" y="-144.3" font-family="Times,serif" font-size="14.00">*</text>
</g>
<!-- Node0x600002b95320&#45;&gt;Node0x600002b95420 -->
<g id="edge5" class="edge">
<title>Node0x600002b95320&#45;&gt;Node0x600002b95420</title>
<path fill="none" stroke="darkgrey" stroke-width="1.2" d="M213.9,-259.74C195.69,-238.93 164.81,-203.64 142.81,-178.49"/>
<polygon fill="darkgrey" stroke="darkgrey" stroke-width="1.2" points="146.97,-174.75 132.22,-166.4 138.54,-182.13 146.97,-174.75"/>
</g>
<!-- Node0x600002b954a0 -->
<g id="node9" class="node">
<title>Node0x600002b954a0</title>
<polygon fill="none" stroke="black" stroke-width="2" points="256,-166 202,-166 202,-130 256,-130 256,-166"/>
<text text-anchor="middle" x="229" y="-144.3" font-family="Times,serif" font-size="14.00">*</text>
</g>
<!-- Node0x600002b95320&#45;&gt;Node0x600002b954a0 -->
<g id="edge8" class="edge">
<title>Node0x600002b95320&#45;&gt;Node0x600002b954a0</title>
<path fill="none" stroke="darkgrey" stroke-width="1.2" d="M229,-259.74C229,-240.08 229,-207.49 229,-182.74"/>
<polygon fill="darkgrey" stroke="darkgrey" stroke-width="1.2" points="234.6,-182.4 229,-166.4 223.4,-182.4 234.6,-182.4"/>
</g>
<!-- Node0x600002b95280 -->
<g id="node7" class="node">
<title>Node0x600002b95280</title>
<polygon fill="none" stroke="black" stroke-width="2" points="54,-36 0,-36 0,0 54,0 54,-36"/>
<text text-anchor="middle" x="27" y="-14.3" font-family="Times,serif" font-size="14.00">0</text>
</g>
<!-- Node0x600002b95420&#45;&gt;Node0x600002b95280 -->
<g id="edge6" class="edge">
<title>Node0x600002b95420&#45;&gt;Node0x600002b95280</title>
<path fill="none" stroke="darkgrey" stroke-width="1.2" d="M104.86,-129.74C90.44,-109.22 66.1,-74.61 48.47,-49.54"/>
<polygon fill="darkgrey" stroke="darkgrey" stroke-width="1.2" points="53.02,-46.27 39.23,-36.4 43.85,-52.71 53.02,-46.27"/>
</g>
<!-- Node0x600002b95400 -->
<g id="node8" class="node">
<title>Node0x600002b95400</title>
<polygon fill="none" stroke="black" stroke-width="2" points="144,-36 90,-36 90,0 144,0 144,-36"/>
<text text-anchor="middle" x="117" y="-14.3" font-family="Times,serif" font-size="14.00">x</text>
</g>
<!-- Node0x600002b95420&#45;&gt;Node0x600002b95400 -->
<g id="edge7" class="edge">
<title>Node0x600002b95420&#45;&gt;Node0x600002b95400</title>
<path fill="none" stroke="darkgrey" stroke-width="1.2" d="M117,-129.74C117,-110.08 117,-77.49 117,-52.74"/>
<polygon fill="darkgrey" stroke="darkgrey" stroke-width="1.2" points="122.6,-52.4 117,-36.4 111.4,-52.4 122.6,-52.4"/>
</g>
<!-- Node0x600002b95440 -->
<g id="node10" class="node">
<title>Node0x600002b95440</title>
<polygon fill="none" stroke="black" stroke-width="2" points="234,-36 180,-36 180,0 234,0 234,-36"/>
<text text-anchor="middle" x="207" y="-14.3" font-family="Times,serif" font-size="14.00">2</text>
</g>
<!-- Node0x600002b954a0&#45;&gt;Node0x600002b95440 -->
<g id="edge9" class="edge">
<title>Node0x600002b954a0&#45;&gt;Node0x600002b95440</title>
<path fill="none" stroke="darkgrey" stroke-width="1.2" d="M226.03,-129.74C222.64,-109.98 217,-77.17 212.74,-52.38"/>
<polygon fill="darkgrey" stroke="darkgrey" stroke-width="1.2" points="218.22,-51.22 209.99,-36.4 207.18,-53.12 218.22,-51.22"/>
</g>
<!-- Node0x600002b95480 -->
<g id="node11" class="node">
<title>Node0x600002b95480</title>
<polygon fill="none" stroke="black" stroke-width="2" points="324,-36 270,-36 270,0 324,0 324,-36"/>
<text text-anchor="middle" x="297" y="-14.3" font-family="Times,serif" font-size="14.00">1</text>
</g>
<!-- Node0x600002b954a0&#45;&gt;Node0x600002b95480 -->
<g id="edge10" class="edge">
<title>Node0x600002b954a0&#45;&gt;Node0x600002b95480</title>
<path fill="none" stroke="darkgrey" stroke-width="1.2" d="M238.17,-129.74C248.92,-109.51 266.94,-75.58 280.22,-50.59"/>
<polygon fill="darkgrey" stroke="darkgrey" stroke-width="1.2" points="285.2,-53.16 287.76,-36.4 275.31,-47.9 285.2,-53.16"/>
</g>
<!-- Node0x600002b95340 -->
<g id="node13" class="node">
<title>Node0x600002b95340</title>
<polygon fill="none" stroke="black" stroke-width="2" points="414,-166 360,-166 360,-130 414,-130 414,-166"/>
<text text-anchor="middle" x="387" y="-144.3" font-family="Times,serif" font-size="14.00">*</text>
</g>
<!-- Node0x600002b953a0&#45;&gt;Node0x600002b95340 -->
<g id="edge12" class="edge">
<title>Node0x600002b953a0&#45;&gt;Node0x600002b95340</title>
<path fill="none" stroke="darkgrey" stroke-width="1.2" d="M367.1,-259.74C370.65,-239.98 376.55,-207.17 381,-182.38"/>
<polygon fill="darkgrey" stroke="darkgrey" stroke-width="1.2" points="386.56,-183.14 383.87,-166.4 375.53,-181.16 386.56,-183.14"/>
</g>
<!-- Node0x600002b95360 -->
<g id="node14" class="node">
<title>Node0x600002b95360</title>
<polygon fill="none" stroke="black" stroke-width="2" points="414,-36 360,-36 360,0 414,0 414,-36"/>
<text text-anchor="middle" x="387" y="-14.3" font-family="Times,serif" font-size="14.00">2</text>
</g>
<!-- Node0x600002b95340&#45;&gt;Node0x600002b95360 -->
<g id="edge13" class="edge">
<title>Node0x600002b95340&#45;&gt;Node0x600002b95360</title>
<path fill="none" stroke="darkgrey" stroke-width="1.2" d="M387,-129.74C387,-110.08 387,-77.49 387,-52.74"/>
<polygon fill="darkgrey" stroke="darkgrey" stroke-width="1.2" points="392.6,-52.4 387,-36.4 381.4,-52.4 392.6,-52.4"/>
</g>
<!-- Node0x600002b95380 -->
<g id="node15" class="node">
<title>Node0x600002b95380</title>
<polygon fill="none" stroke="black" stroke-width="2" points="504,-36 450,-36 450,0 504,0 504,-36"/>
<text text-anchor="middle" x="477" y="-14.3" font-family="Times,serif" font-size="14.00">x</text>
</g>
<!-- Node0x600002b95340&#45;&gt;Node0x600002b95380 -->
<g id="edge14" class="edge">
<title>Node0x600002b95340&#45;&gt;Node0x600002b95380</title>
<path fill="none" stroke="darkgrey" stroke-width="1.2" d="M399.14,-129.74C413.56,-109.22 437.9,-74.61 455.53,-49.54"/>
<polygon fill="darkgrey" stroke="darkgrey" stroke-width="1.2" points="460.15,-52.71 464.77,-36.4 450.98,-46.27 460.15,-52.71"/>
</g>
</g>
</svg>
