<?xml version="1.0" encoding="UTF-8" standalone="no"?>
<!DOCTYPE svg PUBLIC "-//W3C//DTD SVG 1.1//EN"
 "http://www.w3.org/Graphics/SVG/1.1/DTD/svg11.dtd">
<!-- Generated by graphviz version 2.50.0 (20211204.2007)
 -->
<!-- Pages: 1 -->
<svg width="287pt" height="434pt"
 viewBox="0.00 0.00 287.00 434.00" xmlns="http://www.w3.org/2000/svg" xmlns:xlink="http://www.w3.org/1999/xlink">
<g id="graph0" class="graph" transform="scale(1 1) rotate(0) translate(4 430)">
<polygon fill="white" stroke="transparent" points="-4,4 -4,-430 283,-430 283,4 -4,4"/>
<!-- Node0x600003089200 -->
<g id="node1" class="node">
<title>Node0x600003089200</title>
<polygon fill="none" stroke="black" stroke-width="2" points="189,-426 135,-426 135,-390 189,-390 189,-426"/>
<text text-anchor="middle" x="162" y="-404.3" font-family="Times,serif" font-size="14.00">*</text>
</g>
<!-- Node0x60000308c1e0 -->
<g id="node2" class="node">
<title>Node0x60000308c1e0</title>
<polygon fill="none" stroke="black" stroke-width="2" points="144,-296 90,-296 90,-260 144,-260 144,-296"/>
<text text-anchor="middle" x="117" y="-274.3" font-family="Times,serif" font-size="14.00">*</text>
</g>
<!-- Node0x600003089200&#45;&gt;Node0x60000308c1e0 -->
<g id="edge1" class="edge">
<title>Node0x600003089200&#45;&gt;Node0x60000308c1e0</title>
<path fill="none" stroke="darkgrey" stroke-width="1.2" d="M155.93,-389.74C148.92,-369.79 137.23,-336.53 128.48,-311.66"/>
<polygon fill="darkgrey" stroke="darkgrey" stroke-width="1.2" points="133.71,-309.63 123.12,-296.4 123.14,-313.35 133.71,-309.63"/>
</g>
<!-- Node0x60000308c0c0 -->
<g id="node5" class="node">
<title>Node0x60000308c0c0</title>
<polygon fill="none" stroke="black" stroke-width="2" points="234,-296 180,-296 180,-260 234,-260 234,-296"/>
<text text-anchor="middle" x="207" y="-274.3" font-family="Times,serif" font-size="14.00">cos</text>
</g>
<!-- Node0x600003089200&#45;&gt;Node0x60000308c0c0 -->
<g id="edge4" class="edge">
<title>Node0x600003089200&#45;&gt;Node0x60000308c0c0</title>
<path fill="none" stroke="darkgrey" stroke-width="1.2" d="M168.07,-389.74C175.08,-369.79 186.77,-336.53 195.52,-311.66"/>
<polygon fill="darkgrey" stroke="darkgrey" stroke-width="1.2" points="200.86,-313.35 200.88,-296.4 190.29,-309.63 200.86,-313.35"/>
</g>
<!-- Node0x60000308c120 -->
<g id="node3" class="node">
<title>Node0x60000308c120</title>
<polygon fill="none" stroke="black" stroke-width="2" points="54,-166 0,-166 0,-130 54,-130 54,-166"/>
<text text-anchor="middle" x="27" y="-144.3" font-family="Times,serif" font-size="14.00">2</text>
</g>
<!-- Node0x60000308c1e0&#45;&gt;Node0x60000308c120 -->
<g id="edge2" class="edge">
<title>Node0x60000308c1e0&#45;&gt;Node0x60000308c120</title>
<path fill="none" stroke="darkgrey" stroke-width="1.2" d="M104.86,-259.74C90.44,-239.22 66.1,-204.61 48.47,-179.54"/>
<polygon fill="darkgrey" stroke="darkgrey" stroke-width="1.2" points="53.02,-176.27 39.23,-166.4 43.85,-182.71 53.02,-176.27"/>
</g>
<!-- Node0x60000308c140 -->
<g id="node4" class="node">
<title>Node0x60000308c140</title>
<polygon fill="none" stroke="black" stroke-width="2" points="144,-166 90,-166 90,-130 144,-130 144,-166"/>
<text text-anchor="middle" x="117" y="-144.3" font-family="Times,serif" font-size="14.00">x</text>
</g>
<!-- Node0x60000308c1e0&#45;&gt;Node0x60000308c140 -->
<g id="edge3" class="edge">
<title>Node0x60000308c1e0&#45;&gt;Node0x60000308c140</title>
<path fill="none" stroke="darkgrey" stroke-width="1.2" d="M117,-259.74C117,-240.08 117,-207.49 117,-182.74"/>
<polygon fill="darkgrey" stroke="darkgrey" stroke-width="1.2" points="122.6,-182.4 117,-166.4 111.4,-182.4 122.6,-182.4"/>
</g>
<!-- Node0x60000308c060 -->
<g id="node6" class="node">
<title>Node0x60000308c060</title>
<polygon fill="none" stroke="black" stroke-width="2" points="234,-166 180,-166 180,-130 234,-130 234,-166"/>
<text text-anchor="middle" x="207" y="-144.3" font-family="Times,serif" font-size="14.00">^</text>
</g>
<!-- Node0x60000308c0c0&#45;&gt;Node0x60000308c060 -->
<g id="edge5" class="edge">
<title>Node0x60000308c0c0&#45;&gt;Node0x60000308c060</title>
<path fill="none" stroke="darkgrey" stroke-width="1.2" d="M207,-259.74C207,-240.08 207,-207.49 207,-182.74"/>
<polygon fill="darkgrey" stroke="darkgrey" stroke-width="1.2" points="212.6,-182.4 207,-166.4 201.4,-182.4 212.6,-182.4"/>
</g>
<!-- Node0x60000308c080 -->
<g id="node7" class="node">
<title>Node0x60000308c080</title>
<polygon fill="none" stroke="black" stroke-width="2" points="189,-36 135,-36 135,0 189,0 189,-36"/>
<text text-anchor="middle" x="162" y="-14.3" font-family="Times,serif" font-size="14.00">x</text>
</g>
<!-- Node0x60000308c060&#45;&gt;Node0x60000308c080 -->
<g id="edge6" class="edge">
<title>Node0x60000308c060&#45;&gt;Node0x60000308c080</title>
<path fill="none" stroke="darkgrey" stroke-width="1.2" d="M200.93,-129.74C193.92,-109.79 182.23,-76.53 173.48,-51.66"/>
<polygon fill="darkgrey" stroke="darkgrey" stroke-width="1.2" points="178.71,-49.63 168.12,-36.4 168.14,-53.35 178.71,-49.63"/>
</g>
<!-- Node0x60000308c0a0 -->
<g id="node8" class="node">
<title>Node0x60000308c0a0</title>
<polygon fill="none" stroke="black" stroke-width="2" points="279,-36 225,-36 225,0 279,0 279,-36"/>
<text text-anchor="middle" x="252" y="-14.3" font-family="Times,serif" font-size="14.00">2</text>
</g>
<!-- Node0x60000308c060&#45;&gt;Node0x60000308c0a0 -->
<g id="edge7" class="edge">
<title>Node0x60000308c060&#45;&gt;Node0x60000308c0a0</title>
<path fill="none" stroke="darkgrey" stroke-width="1.2" d="M213.07,-129.74C220.08,-109.79 231.77,-76.53 240.52,-51.66"/>
<polygon fill="darkgrey" stroke="darkgrey" stroke-width="1.2" points="245.86,-53.35 245.88,-36.4 235.29,-49.63 245.86,-53.35"/>
</g>
</g>
</svg>
