<?xml version="1.0" encoding="UTF-8" standalone="no"?>
<!DOCTYPE svg PUBLIC "-//W3C//DTD SVG 1.1//EN"
 "http://www.w3.org/Graphics/SVG/1.1/DTD/svg11.dtd">
<!-- Generated by graphviz version 9.0.0 (20230911.1827)
 -->
<!-- Pages: 1 -->
<svg width="512pt" height="694pt"
 viewBox="0.00 0.00 512.00 694.00" xmlns="http://www.w3.org/2000/svg" xmlns:xlink="http://www.w3.org/1999/xlink">
<g id="graph0" class="graph" transform="scale(1 1) rotate(0) translate(4 690)">
<polygon fill="white" stroke="none" points="-4,4 -4,-690 508,-690 508,4 -4,4"/>
<!-- Node0x600002cec140 -->
<g id="node1" class="node">
<title>Node0x600002cec140</title>
<polygon fill="none" stroke="black" stroke-width="2" points="324,-686 270,-686 270,-650 324,-650 324,-686"/>
<text text-anchor="middle" x="297" y="-662.95" font-family="Times,serif" font-size="14.00">+</text>
</g>
<!-- Node0x600002ce91c0 -->
<g id="node2" class="node">
<title>Node0x600002ce91c0</title>
<polygon fill="none" stroke="black" stroke-width="2" points="279,-556 225,-556 225,-520 279,-520 279,-556"/>
<text text-anchor="middle" x="252" y="-532.95" font-family="Times,serif" font-size="14.00">*</text>
</g>
<!-- Node0x600002cec140&#45;&gt;Node0x600002ce91c0 -->
<g id="edge1" class="edge">
<title>Node0x600002cec140&#45;&gt;Node0x600002ce91c0</title>
<path fill="none" stroke="darkgrey" stroke-width="1.2" d="M290.74,-649.2C283.86,-629.62 272.63,-597.68 264.03,-573.21"/>
<polygon fill="darkgrey" stroke="darkgrey" stroke-width="1.2" points="269.4,-571.6 258.81,-558.36 258.83,-575.31 269.4,-571.6"/>
</g>
<!-- Node0x600002ce9200 -->
<g id="node16" class="node">
<title>Node0x600002ce9200</title>
<polygon fill="none" stroke="black" stroke-width="2" points="369,-556 315,-556 315,-520 369,-520 369,-556"/>
<text text-anchor="middle" x="342" y="-532.95" font-family="Times,serif" font-size="14.00">0</text>
</g>
<!-- Node0x600002cec140&#45;&gt;Node0x600002ce9200 -->
<g id="edge15" class="edge">
<title>Node0x600002cec140&#45;&gt;Node0x600002ce9200</title>
<path fill="none" stroke="darkgrey" stroke-width="1.2" d="M303.26,-649.2C310.14,-629.62 321.37,-597.68 329.97,-573.21"/>
<polygon fill="darkgrey" stroke="darkgrey" stroke-width="1.2" points="335.17,-575.31 335.19,-558.36 324.6,-571.6 335.17,-575.31"/>
</g>
<!-- Node0x600002ce9220 -->
<g id="node3" class="node">
<title>Node0x600002ce9220</title>
<polygon fill="none" stroke="black" stroke-width="2" points="234,-426 180,-426 180,-390 234,-390 234,-426"/>
<text text-anchor="middle" x="207" y="-402.95" font-family="Times,serif" font-size="14.00">&#45;1</text>
</g>
<!-- Node0x600002ce91c0&#45;&gt;Node0x600002ce9220 -->
<g id="edge2" class="edge">
<title>Node0x600002ce91c0&#45;&gt;Node0x600002ce9220</title>
<path fill="none" stroke="darkgrey" stroke-width="1.2" d="M245.74,-519.2C238.86,-499.62 227.63,-467.68 219.03,-443.21"/>
<polygon fill="darkgrey" stroke="darkgrey" stroke-width="1.2" points="224.4,-441.6 213.81,-428.36 213.83,-445.31 224.4,-441.6"/>
</g>
<!-- Node0x600002ce9300 -->
<g id="node4" class="node">
<title>Node0x600002ce9300</title>
<polygon fill="none" stroke="black" stroke-width="2" points="324,-426 270,-426 270,-390 324,-390 324,-426"/>
<text text-anchor="middle" x="297" y="-402.95" font-family="Times,serif" font-size="14.00">*</text>
</g>
<!-- Node0x600002ce91c0&#45;&gt;Node0x600002ce9300 -->
<g id="edge3" class="edge">
<title>Node0x600002ce91c0&#45;&gt;Node0x600002ce9300</title>
<path fill="none" stroke="darkgrey" stroke-width="1.2" d="M258.26,-519.2C265.14,-499.62 276.37,-467.68 284.97,-443.21"/>
<polygon fill="darkgrey" stroke="darkgrey" stroke-width="1.2" points="290.17,-445.31 290.19,-428.36 279.6,-441.6 290.17,-445.31"/>
</g>
<!-- Node0x600002ce9260 -->
<g id="node5" class="node">
<title>Node0x600002ce9260</title>
<polygon fill="none" stroke="black" stroke-width="2" points="256,-296 202,-296 202,-260 256,-260 256,-296"/>
<text text-anchor="middle" x="229" y="-272.95" font-family="Times,serif" font-size="14.00">+</text>
</g>
<!-- Node0x600002ce9300&#45;&gt;Node0x600002ce9260 -->
<g id="edge4" class="edge">
<title>Node0x600002ce9300&#45;&gt;Node0x600002ce9260</title>
<path fill="none" stroke="darkgrey" stroke-width="1.2" d="M287.54,-389.2C276.99,-369.33 259.68,-336.74 246.61,-312.14"/>
<polygon fill="darkgrey" stroke="darkgrey" stroke-width="1.2" points="251.68,-309.75 239.23,-298.25 241.79,-315.01 251.68,-309.75"/>
</g>
<!-- Node0x600002ce92e0 -->
<g id="node12" class="node">
<title>Node0x600002ce92e0</title>
<polygon fill="none" stroke="black" stroke-width="2" points="391,-296 337,-296 337,-260 391,-260 391,-296"/>
<text text-anchor="middle" x="364" y="-272.95" font-family="Times,serif" font-size="14.00">sin</text>
</g>
<!-- Node0x600002ce9300&#45;&gt;Node0x600002ce92e0 -->
<g id="edge11" class="edge">
<title>Node0x600002ce9300&#45;&gt;Node0x600002ce92e0</title>
<path fill="none" stroke="darkgrey" stroke-width="1.2" d="M306.32,-389.2C316.72,-369.33 333.78,-336.74 346.65,-312.14"/>
<polygon fill="darkgrey" stroke="darkgrey" stroke-width="1.2" points="351.46,-315.03 353.92,-298.26 341.54,-309.83 351.46,-315.03"/>
</g>
<!-- Node0x600002ce9360 -->
<g id="node6" class="node">
<title>Node0x600002ce9360</title>
<polygon fill="none" stroke="black" stroke-width="2" points="144,-166 90,-166 90,-130 144,-130 144,-166"/>
<text text-anchor="middle" x="117" y="-142.95" font-family="Times,serif" font-size="14.00">*</text>
</g>
<!-- Node0x600002ce9260&#45;&gt;Node0x600002ce9360 -->
<g id="edge5" class="edge">
<title>Node0x600002ce9260&#45;&gt;Node0x600002ce9360</title>
<path fill="none" stroke="darkgrey" stroke-width="1.2" d="M213.43,-259.2C195.54,-238.76 165.87,-204.85 144.16,-180.04"/>
<polygon fill="darkgrey" stroke="darkgrey" stroke-width="1.2" points="148.39,-176.37 133.64,-168.01 139.96,-183.74 148.39,-176.37"/>
</g>
<!-- Node0x600002ce93e0 -->
<g id="node9" class="node">
<title>Node0x600002ce93e0</title>
<polygon fill="none" stroke="black" stroke-width="2" points="256,-166 202,-166 202,-130 256,-130 256,-166"/>
<text text-anchor="middle" x="229" y="-142.95" font-family="Times,serif" font-size="14.00">*</text>
</g>
<!-- Node0x600002ce9260&#45;&gt;Node0x600002ce93e0 -->
<g id="edge8" class="edge">
<title>Node0x600002ce9260&#45;&gt;Node0x600002ce93e0</title>
<path fill="none" stroke="darkgrey" stroke-width="1.2" d="M229,-259.2C229,-239.91 229,-208.61 229,-184.29"/>
<polygon fill="darkgrey" stroke="darkgrey" stroke-width="1.2" points="234.6,-184.46 229,-168.46 223.4,-184.46 234.6,-184.46"/>
</g>
<!-- Node0x600002ce91a0 -->
<g id="node7" class="node">
<title>Node0x600002ce91a0</title>
<polygon fill="none" stroke="black" stroke-width="2" points="54,-36 0,-36 0,0 54,0 54,-36"/>
<text text-anchor="middle" x="27" y="-12.95" font-family="Times,serif" font-size="14.00">0</text>
</g>
<!-- Node0x600002ce9360&#45;&gt;Node0x600002ce91a0 -->
<g id="edge6" class="edge">
<title>Node0x600002ce9360&#45;&gt;Node0x600002ce91a0</title>
<path fill="none" stroke="darkgrey" stroke-width="1.2" d="M104.49,-129.2C90.31,-109.05 66.94,-75.8 49.56,-51.08"/>
<polygon fill="darkgrey" stroke="darkgrey" stroke-width="1.2" points="54.24,-48 40.45,-38.13 45.07,-54.44 54.24,-48"/>
</g>
<!-- Node0x600002ce9340 -->
<g id="node8" class="node">
<title>Node0x600002ce9340</title>
<polygon fill="none" stroke="black" stroke-width="2" points="144,-36 90,-36 90,0 144,0 144,-36"/>
<text text-anchor="middle" x="117" y="-12.95" font-family="Times,serif" font-size="14.00">x</text>
</g>
<!-- Node0x600002ce9360&#45;&gt;Node0x600002ce9340 -->
<g id="edge7" class="edge">
<title>Node0x600002ce9360&#45;&gt;Node0x600002ce9340</title>
<path fill="none" stroke="darkgrey" stroke-width="1.2" d="M117,-129.2C117,-109.91 117,-78.61 117,-54.29"/>
<polygon fill="darkgrey" stroke="darkgrey" stroke-width="1.2" points="122.6,-54.46 117,-38.46 111.4,-54.46 122.6,-54.46"/>
</g>
<!-- Node0x600002ce9380 -->
<g id="node10" class="node">
<title>Node0x600002ce9380</title>
<polygon fill="none" stroke="black" stroke-width="2" points="234,-36 180,-36 180,0 234,0 234,-36"/>
<text text-anchor="middle" x="207" y="-12.95" font-family="Times,serif" font-size="14.00">2</text>
</g>
<!-- Node0x600002ce93e0&#45;&gt;Node0x600002ce9380 -->
<g id="edge9" class="edge">
<title>Node0x600002ce93e0&#45;&gt;Node0x600002ce9380</title>
<path fill="none" stroke="darkgrey" stroke-width="1.2" d="M225.94,-129.2C222.61,-109.81 217.19,-78.3 213,-53.93"/>
<polygon fill="darkgrey" stroke="darkgrey" stroke-width="1.2" points="218.57,-53.26 210.34,-38.44 207.53,-55.15 218.57,-53.26"/>
</g>
<!-- Node0x600002ce93c0 -->
<g id="node11" class="node">
<title>Node0x600002ce93c0</title>
<polygon fill="none" stroke="black" stroke-width="2" points="324,-36 270,-36 270,0 324,0 324,-36"/>
<text text-anchor="middle" x="297" y="-12.95" font-family="Times,serif" font-size="14.00">1</text>
</g>
<!-- Node0x600002ce93e0&#45;&gt;Node0x600002ce93c0 -->
<g id="edge10" class="edge">
<title>Node0x600002ce93e0&#45;&gt;Node0x600002ce93c0</title>
<path fill="none" stroke="darkgrey" stroke-width="1.2" d="M238.46,-129.2C249.01,-109.33 266.32,-76.74 279.39,-52.14"/>
<polygon fill="darkgrey" stroke="darkgrey" stroke-width="1.2" points="284.21,-55.01 286.77,-38.25 274.32,-49.75 284.21,-55.01"/>
</g>
<!-- Node0x600002ce9280 -->
<g id="node13" class="node">
<title>Node0x600002ce9280</title>
<polygon fill="none" stroke="black" stroke-width="2" points="414,-166 360,-166 360,-130 414,-130 414,-166"/>
<text text-anchor="middle" x="387" y="-142.95" font-family="Times,serif" font-size="14.00">*</text>
</g>
<!-- Node0x600002ce92e0&#45;&gt;Node0x600002ce9280 -->
<g id="edge12" class="edge">
<title>Node0x600002ce92e0&#45;&gt;Node0x600002ce9280</title>
<path fill="none" stroke="darkgrey" stroke-width="1.2" d="M367.2,-259.2C370.68,-239.81 376.34,-208.3 380.72,-183.93"/>
<polygon fill="darkgrey" stroke="darkgrey" stroke-width="1.2" points="386.19,-185.17 383.51,-168.43 375.17,-183.19 386.19,-185.17"/>
</g>
<!-- Node0x600002ce92a0 -->
<g id="node14" class="node">
<title>Node0x600002ce92a0</title>
<polygon fill="none" stroke="black" stroke-width="2" points="414,-36 360,-36 360,0 414,0 414,-36"/>
<text text-anchor="middle" x="387" y="-12.95" font-family="Times,serif" font-size="14.00">2</text>
</g>
<!-- Node0x600002ce9280&#45;&gt;Node0x600002ce92a0 -->
<g id="edge13" class="edge">
<title>Node0x600002ce9280&#45;&gt;Node0x600002ce92a0</title>
<path fill="none" stroke="darkgrey" stroke-width="1.2" d="M387,-129.2C387,-109.91 387,-78.61 387,-54.29"/>
<polygon fill="darkgrey" stroke="darkgrey" stroke-width="1.2" points="392.6,-54.46 387,-38.46 381.4,-54.46 392.6,-54.46"/>
</g>
<!-- Node0x600002ce92c0 -->
<g id="node15" class="node">
<title>Node0x600002ce92c0</title>
<polygon fill="none" stroke="black" stroke-width="2" points="504,-36 450,-36 450,0 504,0 504,-36"/>
<text text-anchor="middle" x="477" y="-12.95" font-family="Times,serif" font-size="14.00">x</text>
</g>
<!-- Node0x600002ce9280&#45;&gt;Node0x600002ce92c0 -->
<g id="edge14" class="edge">
<title>Node0x600002ce9280&#45;&gt;Node0x600002ce92c0</title>
<path fill="none" stroke="darkgrey" stroke-width="1.2" d="M399.51,-129.2C413.69,-109.05 437.06,-75.8 454.44,-51.08"/>
<polygon fill="darkgrey" stroke="darkgrey" stroke-width="1.2" points="458.93,-54.44 463.55,-38.13 449.76,-48 458.93,-54.44"/>
</g>
</g>
</svg>
