<?xml version="1.0" encoding="UTF-8" standalone="no"?>
<!DOCTYPE svg PUBLIC "-//W3C//DTD SVG 1.1//EN"
 "http://www.w3.org/Graphics/SVG/1.1/DTD/svg11.dtd">
<!-- Generated by graphviz version 2.50.0 (20211204.2007)
 -->
<!-- Pages: 1 -->
<svg width="242pt" height="564pt"
 viewBox="0.00 0.00 242.00 564.00" xmlns="http://www.w3.org/2000/svg" xmlns:xlink="http://www.w3.org/1999/xlink">
<g id="graph0" class="graph" transform="scale(1 1) rotate(0) translate(4 560)">
<polygon fill="white" stroke="transparent" points="-4,4 -4,-560 238,-560 238,4 -4,4"/>
<!-- Node0x600002b952a0 -->
<g id="node1" class="node">
<title>Node0x600002b952a0</title>
<polygon fill="none" stroke="black" stroke-width="2" points="99,-556 45,-556 45,-520 99,-520 99,-556"/>
<text text-anchor="middle" x="72" y="-534.3" font-family="Times,serif" font-size="14.00">*</text>
</g>
<!-- Node0x600002b95300 -->
<g id="node2" class="node">
<title>Node0x600002b95300</title>
<polygon fill="none" stroke="black" stroke-width="2" points="54,-426 0,-426 0,-390 54,-390 54,-426"/>
<text text-anchor="middle" x="27" y="-404.3" font-family="Times,serif" font-size="14.00">&#45;1</text>
</g>
<!-- Node0x600002b952a0&#45;&gt;Node0x600002b95300 -->
<g id="edge1" class="edge">
<title>Node0x600002b952a0&#45;&gt;Node0x600002b95300</title>
<path fill="none" stroke="darkgrey" stroke-width="1.2" d="M65.93,-519.74C58.92,-499.79 47.23,-466.53 38.48,-441.66"/>
<polygon fill="darkgrey" stroke="darkgrey" stroke-width="1.2" points="43.71,-439.63 33.12,-426.4 33.14,-443.35 43.71,-439.63"/>
</g>
<!-- Node0x600002b953c0 -->
<g id="node3" class="node">
<title>Node0x600002b953c0</title>
<polygon fill="none" stroke="black" stroke-width="2" points="144,-426 90,-426 90,-390 144,-390 144,-426"/>
<text text-anchor="middle" x="117" y="-404.3" font-family="Times,serif" font-size="14.00">*</text>
</g>
<!-- Node0x600002b952a0&#45;&gt;Node0x600002b953c0 -->
<g id="edge2" class="edge">
<title>Node0x600002b952a0&#45;&gt;Node0x600002b953c0</title>
<path fill="none" stroke="darkgrey" stroke-width="1.2" d="M78.07,-519.74C85.08,-499.79 96.77,-466.53 105.52,-441.66"/>
<polygon fill="darkgrey" stroke="darkgrey" stroke-width="1.2" points="110.86,-443.35 110.88,-426.4 100.29,-439.63 110.86,-443.35"/>
</g>
<!-- Node0x600002b95320 -->
<g id="node4" class="node">
<title>Node0x600002b95320</title>
<polygon fill="none" stroke="black" stroke-width="2" points="99,-296 45,-296 45,-260 99,-260 99,-296"/>
<text text-anchor="middle" x="72" y="-274.3" font-family="Times,serif" font-size="14.00">2</text>
</g>
<!-- Node0x600002b953c0&#45;&gt;Node0x600002b95320 -->
<g id="edge3" class="edge">
<title>Node0x600002b953c0&#45;&gt;Node0x600002b95320</title>
<path fill="none" stroke="darkgrey" stroke-width="1.2" d="M110.93,-389.74C103.92,-369.79 92.23,-336.53 83.48,-311.66"/>
<polygon fill="darkgrey" stroke="darkgrey" stroke-width="1.2" points="88.71,-309.63 78.12,-296.4 78.14,-313.35 88.71,-309.63"/>
</g>
<!-- Node0x600002b953a0 -->
<g id="node5" class="node">
<title>Node0x600002b953a0</title>
<polygon fill="none" stroke="black" stroke-width="2" points="189,-296 135,-296 135,-260 189,-260 189,-296"/>
<text text-anchor="middle" x="162" y="-274.3" font-family="Times,serif" font-size="14.00">sin</text>
</g>
<!-- Node0x600002b953c0&#45;&gt;Node0x600002b953a0 -->
<g id="edge4" class="edge">
<title>Node0x600002b953c0&#45;&gt;Node0x600002b953a0</title>
<path fill="none" stroke="darkgrey" stroke-width="1.2" d="M123.07,-389.74C130.08,-369.79 141.77,-336.53 150.52,-311.66"/>
<polygon fill="darkgrey" stroke="darkgrey" stroke-width="1.2" points="155.86,-313.35 155.88,-296.4 145.29,-309.63 155.86,-313.35"/>
</g>
<!-- Node0x600002b95340 -->
<g id="node6" class="node">
<title>Node0x600002b95340</title>
<polygon fill="none" stroke="black" stroke-width="2" points="189,-166 135,-166 135,-130 189,-130 189,-166"/>
<text text-anchor="middle" x="162" y="-144.3" font-family="Times,serif" font-size="14.00">*</text>
</g>
<!-- Node0x600002b953a0&#45;&gt;Node0x600002b95340 -->
<g id="edge5" class="edge">
<title>Node0x600002b953a0&#45;&gt;Node0x600002b95340</title>
<path fill="none" stroke="darkgrey" stroke-width="1.2" d="M162,-259.74C162,-240.08 162,-207.49 162,-182.74"/>
<polygon fill="darkgrey" stroke="darkgrey" stroke-width="1.2" points="167.6,-182.4 162,-166.4 156.4,-182.4 167.6,-182.4"/>
</g>
<!-- Node0x600002b95360 -->
<g id="node7" class="node">
<title>Node0x600002b95360</title>
<polygon fill="none" stroke="black" stroke-width="2" points="144,-36 90,-36 90,0 144,0 144,-36"/>
<text text-anchor="middle" x="117" y="-14.3" font-family="Times,serif" font-size="14.00">2</text>
</g>
<!-- Node0x600002b95340&#45;&gt;Node0x600002b95360 -->
<g id="edge6" class="edge">
<title>Node0x600002b95340&#45;&gt;Node0x600002b95360</title>
<path fill="none" stroke="darkgrey" stroke-width="1.2" d="M155.93,-129.74C148.92,-109.79 137.23,-76.53 128.48,-51.66"/>
<polygon fill="darkgrey" stroke="darkgrey" stroke-width="1.2" points="133.71,-49.63 123.12,-36.4 123.14,-53.35 133.71,-49.63"/>
</g>
<!-- Node0x600002b95380 -->
<g id="node8" class="node">
<title>Node0x600002b95380</title>
<polygon fill="none" stroke="black" stroke-width="2" points="234,-36 180,-36 180,0 234,0 234,-36"/>
<text text-anchor="middle" x="207" y="-14.3" font-family="Times,serif" font-size="14.00">x</text>
</g>
<!-- Node0x600002b95340&#45;&gt;Node0x600002b95380 -->
<g id="edge7" class="edge">
<title>Node0x600002b95340&#45;&gt;Node0x600002b95380</title>
<path fill="none" stroke="darkgrey" stroke-width="1.2" d="M168.07,-129.74C175.08,-109.79 186.77,-76.53 195.52,-51.66"/>
<polygon fill="darkgrey" stroke="darkgrey" stroke-width="1.2" points="200.86,-53.35 200.88,-36.4 190.29,-49.63 200.86,-53.35"/>
</g>
</g>
</svg>
