<?xml version="1.0" encoding="UTF-8" standalone="no"?>
<!DOCTYPE svg PUBLIC "-//W3C//DTD SVG 1.1//EN"
 "http://www.w3.org/Graphics/SVG/1.1/DTD/svg11.dtd">
<!-- Generated by graphviz version 2.50.0 (20211204.2007)
 -->
<!-- Pages: 1 -->
<svg width="197pt" height="434pt"
 viewBox="0.00 0.00 197.00 434.00" xmlns="http://www.w3.org/2000/svg" xmlns:xlink="http://www.w3.org/1999/xlink">
<g id="graph0" class="graph" transform="scale(1 1) rotate(0) translate(4 430)">
<polygon fill="white" stroke="transparent" points="-4,4 -4,-430 193,-430 193,4 -4,4"/>
<!-- Node0x600002b951c0 -->
<g id="node1" class="node">
<title>Node0x600002b951c0</title>
<polygon fill="none" stroke="black" stroke-width="2" points="144,-426 90,-426 90,-390 144,-390 144,-426"/>
<text text-anchor="middle" x="117" y="-404.3" font-family="Times,serif" font-size="14.00">+</text>
</g>
<!-- Node0x600002b95140 -->
<g id="node2" class="node">
<title>Node0x600002b95140</title>
<polygon fill="none" stroke="black" stroke-width="2" points="99,-296 45,-296 45,-260 99,-260 99,-296"/>
<text text-anchor="middle" x="72" y="-274.3" font-family="Times,serif" font-size="14.00">cos</text>
</g>
<!-- Node0x600002b951c0&#45;&gt;Node0x600002b95140 -->
<g id="edge1" class="edge">
<title>Node0x600002b951c0&#45;&gt;Node0x600002b95140</title>
<path fill="none" stroke="darkgrey" stroke-width="1.2" d="M110.93,-389.74C103.92,-369.79 92.23,-336.53 83.48,-311.66"/>
<polygon fill="darkgrey" stroke="darkgrey" stroke-width="1.2" points="88.71,-309.63 78.12,-296.4 78.14,-313.35 88.71,-309.63"/>
</g>
<!-- Node0x600002b951e0 -->
<g id="node6" class="node">
<title>Node0x600002b951e0</title>
<polygon fill="none" stroke="black" stroke-width="2" points="189,-296 135,-296 135,-260 189,-260 189,-296"/>
<text text-anchor="middle" x="162" y="-274.3" font-family="Times,serif" font-size="14.00">5</text>
</g>
<!-- Node0x600002b951c0&#45;&gt;Node0x600002b951e0 -->
<g id="edge5" class="edge">
<title>Node0x600002b951c0&#45;&gt;Node0x600002b951e0</title>
<path fill="none" stroke="darkgrey" stroke-width="1.2" d="M123.07,-389.74C130.08,-369.79 141.77,-336.53 150.52,-311.66"/>
<polygon fill="darkgrey" stroke="darkgrey" stroke-width="1.2" points="155.86,-313.35 155.88,-296.4 145.29,-309.63 155.86,-313.35"/>
</g>
<!-- Node0x600002b95180 -->
<g id="node3" class="node">
<title>Node0x600002b95180</title>
<polygon fill="none" stroke="black" stroke-width="2" points="99,-166 45,-166 45,-130 99,-130 99,-166"/>
<text text-anchor="middle" x="72" y="-144.3" font-family="Times,serif" font-size="14.00">*</text>
</g>
<!-- Node0x600002b95140&#45;&gt;Node0x600002b95180 -->
<g id="edge2" class="edge">
<title>Node0x600002b95140&#45;&gt;Node0x600002b95180</title>
<path fill="none" stroke="darkgrey" stroke-width="1.2" d="M72,-259.74C72,-240.08 72,-207.49 72,-182.74"/>
<polygon fill="darkgrey" stroke="darkgrey" stroke-width="1.2" points="77.6,-182.4 72,-166.4 66.4,-182.4 77.6,-182.4"/>
</g>
<!-- Node0x600002b95160 -->
<g id="node4" class="node">
<title>Node0x600002b95160</title>
<polygon fill="none" stroke="black" stroke-width="2" points="54,-36 0,-36 0,0 54,0 54,-36"/>
<text text-anchor="middle" x="27" y="-14.3" font-family="Times,serif" font-size="14.00">2</text>
</g>
<!-- Node0x600002b95180&#45;&gt;Node0x600002b95160 -->
<g id="edge3" class="edge">
<title>Node0x600002b95180&#45;&gt;Node0x600002b95160</title>
<path fill="none" stroke="darkgrey" stroke-width="1.2" d="M65.93,-129.74C58.92,-109.79 47.23,-76.53 38.48,-51.66"/>
<polygon fill="darkgrey" stroke="darkgrey" stroke-width="1.2" points="43.71,-49.63 33.12,-36.4 33.14,-53.35 43.71,-49.63"/>
</g>
<!-- Node0x600002b951a0 -->
<g id="node5" class="node">
<title>Node0x600002b951a0</title>
<polygon fill="none" stroke="black" stroke-width="2" points="144,-36 90,-36 90,0 144,0 144,-36"/>
<text text-anchor="middle" x="117" y="-14.3" font-family="Times,serif" font-size="14.00">x</text>
</g>
<!-- Node0x600002b95180&#45;&gt;Node0x600002b951a0 -->
<g id="edge4" class="edge">
<title>Node0x600002b95180&#45;&gt;Node0x600002b951a0</title>
<path fill="none" stroke="darkgrey" stroke-width="1.2" d="M78.07,-129.74C85.08,-109.79 96.77,-76.53 105.52,-51.66"/>
<polygon fill="darkgrey" stroke="darkgrey" stroke-width="1.2" points="110.86,-53.35 110.88,-36.4 100.29,-49.63 110.86,-53.35"/>
</g>
</g>
</svg>
