<?xml version="1.0" encoding="UTF-8" standalone="no"?>
<!DOCTYPE svg PUBLIC "-//W3C//DTD SVG 1.1//EN"
 "http://www.w3.org/Graphics/SVG/1.1/DTD/svg11.dtd">
<!-- Generated by graphviz version 2.50.0 (20211204.2007)
 -->
<!-- Title: G Pages: 1 -->
<svg width="252pt" height="481pt"
 viewBox="0.00 0.00 252.00 481.00" xmlns="http://www.w3.org/2000/svg" xmlns:xlink="http://www.w3.org/1999/xlink">
<g id="graph0" class="graph" transform="scale(1 1) rotate(0) translate(4 477)">
<title>G</title>
<polygon fill="#ffffff" stroke="transparent" points="-4,4 -4,-477 248,-477 248,4 -4,4"/>
<!-- Node0x600000274100 -->
<g id="node1" class="node">
<title>Node0x600000274100</title>
<polygon fill="#ffffff" stroke="#000000" stroke-width="2" points="38,-436.5 38,-472.5 92,-472.5 92,-436.5 38,-436.5"/>
<text text-anchor="middle" x="65" y="-451.4" font-family="Arial" font-size="12.00" fill="#000000">*</text>
</g>
<!-- Node0x600000274000 -->
<g id="node2" class="node">
<title>Node0x600000274000</title>
<polygon fill="#ffffff" stroke="#000000" stroke-width="2" points="0,-327.5 0,-363.5 54,-363.5 54,-327.5 0,-327.5"/>
<text text-anchor="middle" x="27" y="-342.4" font-family="Arial" font-size="12.00" fill="#000000">1</text>
</g>
<!-- Node0x600000274100&#45;&gt;Node0x600000274000 -->
<g id="edge1" class="edge">
<title>Node0x600000274100&#45;&gt;Node0x600000274000</title>
<path fill="none" stroke="black" stroke-width="1.1" d="M58.89,-436.31C52.55,-418.45 42.58,-390.36 35.47,-370.36"/>
<polygon fill="black" stroke="black" stroke-width="1.1" points="37.74,-369.43 33.09,-363.65 33.12,-371.07 37.74,-369.43"/>
</g>
<!-- Node0x6000002740e0 -->
<g id="node3" class="node">
<title>Node0x6000002740e0</title>
<polygon fill="#ffffff" stroke="#000000" stroke-width="2" points="76,-327.5 76,-363.5 130,-363.5 130,-327.5 76,-327.5"/>
<text text-anchor="middle" x="103" y="-342.4" font-family="Arial" font-size="12.00" fill="#000000">*</text>
</g>
<!-- Node0x600000274100&#45;&gt;Node0x6000002740e0 -->
<g id="edge2" class="edge">
<title>Node0x600000274100&#45;&gt;Node0x6000002740e0</title>
<path fill="none" stroke="black" stroke-width="1.1" d="M71.11,-436.31C77.45,-418.45 87.42,-390.36 94.53,-370.36"/>
<polygon fill="black" stroke="black" stroke-width="1.1" points="96.88,-371.07 96.91,-363.65 92.26,-369.43 96.88,-371.07"/>
</g>
<!-- Node0x600000274020 -->
<g id="node4" class="node">
<title>Node0x600000274020</title>
<polygon fill="#ffffff" stroke="#000000" stroke-width="2" points="38,-218.5 38,-254.5 92,-254.5 92,-218.5 38,-218.5"/>
<text text-anchor="middle" x="65" y="-233.4" font-family="Arial" font-size="12.00" fill="#000000">2</text>
</g>
<!-- Node0x6000002740e0&#45;&gt;Node0x600000274020 -->
<g id="edge3" class="edge">
<title>Node0x6000002740e0&#45;&gt;Node0x600000274020</title>
<path fill="none" stroke="black" stroke-width="1.1" d="M96.89,-327.31C90.55,-309.45 80.58,-281.36 73.47,-261.36"/>
<polygon fill="black" stroke="black" stroke-width="1.1" points="75.74,-260.43 71.09,-254.65 71.12,-262.07 75.74,-260.43"/>
</g>
<!-- Node0x6000002740c0 -->
<g id="node5" class="node">
<title>Node0x6000002740c0</title>
<polygon fill="#ffffff" stroke="#000000" stroke-width="2" points="114,-218.5 114,-254.5 168,-254.5 168,-218.5 114,-218.5"/>
<text text-anchor="middle" x="141" y="-233.4" font-family="Arial" font-size="12.00" fill="#000000">^</text>
</g>
<!-- Node0x6000002740e0&#45;&gt;Node0x6000002740c0 -->
<g id="edge4" class="edge">
<title>Node0x6000002740e0&#45;&gt;Node0x6000002740c0</title>
<path fill="none" stroke="black" stroke-width="1.1" d="M109.11,-327.31C115.45,-309.45 125.42,-281.36 132.53,-261.36"/>
<polygon fill="black" stroke="black" stroke-width="1.1" points="134.88,-262.07 134.91,-254.65 130.26,-260.43 134.88,-262.07"/>
</g>
<!-- Node0x600000274040 -->
<g id="node6" class="node">
<title>Node0x600000274040</title>
<polygon fill="#ffffff" stroke="#000000" stroke-width="2" points="76,-109.5 76,-145.5 130,-145.5 130,-109.5 76,-109.5"/>
<text text-anchor="middle" x="103" y="-124.4" font-family="Arial" font-size="12.00" fill="#000000">x</text>
</g>
<!-- Node0x6000002740c0&#45;&gt;Node0x600000274040 -->
<g id="edge5" class="edge">
<title>Node0x6000002740c0&#45;&gt;Node0x600000274040</title>
<path fill="none" stroke="black" stroke-width="1.1" d="M134.89,-218.31C128.55,-200.45 118.58,-172.36 111.47,-152.36"/>
<polygon fill="black" stroke="black" stroke-width="1.1" points="113.74,-151.43 109.09,-145.65 109.12,-153.07 113.74,-151.43"/>
</g>
<!-- Node0x6000002740a0 -->
<g id="node7" class="node">
<title>Node0x6000002740a0</title>
<polygon fill="#ffffff" stroke="#000000" stroke-width="2" points="152,-109.5 152,-145.5 206,-145.5 206,-109.5 152,-109.5"/>
<text text-anchor="middle" x="179" y="-124.4" font-family="Arial" font-size="12.00" fill="#000000">&#45;</text>
</g>
<!-- Node0x6000002740c0&#45;&gt;Node0x6000002740a0 -->
<g id="edge6" class="edge">
<title>Node0x6000002740c0&#45;&gt;Node0x6000002740a0</title>
<path fill="none" stroke="black" stroke-width="1.1" d="M147.11,-218.31C153.45,-200.45 163.42,-172.36 170.53,-152.36"/>
<polygon fill="black" stroke="black" stroke-width="1.1" points="172.88,-153.07 172.91,-145.65 168.26,-151.43 172.88,-153.07"/>
</g>
<!-- Node0x600000274060 -->
<g id="node8" class="node">
<title>Node0x600000274060</title>
<polygon fill="#ffffff" stroke="#000000" stroke-width="2" points="114,-0.5 114,-36.5 168,-36.5 168,-0.5 114,-0.5"/>
<text text-anchor="middle" x="141" y="-15.4" font-family="Arial" font-size="12.00" fill="#000000">2</text>
</g>
<!-- Node0x6000002740a0&#45;&gt;Node0x600000274060 -->
<g id="edge7" class="edge">
<title>Node0x6000002740a0&#45;&gt;Node0x600000274060</title>
<path fill="none" stroke="black" stroke-width="1.1" d="M172.89,-109.31C166.55,-91.45 156.58,-63.36 149.47,-43.36"/>
<polygon fill="black" stroke="black" stroke-width="1.1" points="151.74,-42.43 147.09,-36.65 147.12,-44.07 151.74,-42.43"/>
</g>
<!-- Node0x600000274080 -->
<g id="node9" class="node">
<title>Node0x600000274080</title>
<polygon fill="#ffffff" stroke="#000000" stroke-width="2" points="190,-0.5 190,-36.5 244,-36.5 244,-0.5 190,-0.5"/>
<text text-anchor="middle" x="217" y="-15.4" font-family="Arial" font-size="12.00" fill="#000000">1</text>
</g>
<!-- Node0x6000002740a0&#45;&gt;Node0x600000274080 -->
<g id="edge8" class="edge">
<title>Node0x6000002740a0&#45;&gt;Node0x600000274080</title>
<path fill="none" stroke="black" stroke-width="1.1" d="M185.11,-109.31C191.45,-91.45 201.42,-63.36 208.53,-43.36"/>
<polygon fill="black" stroke="black" stroke-width="1.1" points="210.88,-44.07 210.91,-36.65 206.26,-42.43 210.88,-44.07"/>
</g>
</g>
</svg>
