<?xml version="1.0" encoding="UTF-8" standalone="no"?>
<!DOCTYPE svg PUBLIC "-//W3C//DTD SVG 1.1//EN"
 "http://www.w3.org/Graphics/SVG/1.1/DTD/svg11.dtd">
<!-- Generated by graphviz version 2.50.0 (20211204.2007)
 -->
<!-- Title: G Pages: 1 -->
<svg width="138pt" height="372pt"
 viewBox="0.00 0.00 138.00 372.00" xmlns="http://www.w3.org/2000/svg" xmlns:xlink="http://www.w3.org/1999/xlink">
<g id="graph0" class="graph" transform="scale(1 1) rotate(0) translate(4 368)">
<title>G</title>
<polygon fill="#ffffff" stroke="transparent" points="-4,4 -4,-368 134,-368 134,4 -4,4"/>
<!-- Node0x60000065d140 -->
<g id="node1" class="node">
<title>Node0x60000065d140</title>
<polygon fill="#ffffff" stroke="#000000" stroke-width="2" points="38,-327.5 38,-363.5 92,-363.5 92,-327.5 38,-327.5"/>
<text text-anchor="middle" x="65" y="-342.4" font-family="Arial" font-size="12.00" fill="#000000">sin</text>
</g>
<!-- Node0x60000065d160 -->
<g id="node2" class="node">
<title>Node0x60000065d160</title>
<polygon fill="#ffffff" stroke="#000000" stroke-width="2" points="38,-218.5 38,-254.5 92,-254.5 92,-218.5 38,-218.5"/>
<text text-anchor="middle" x="65" y="-233.4" font-family="Arial" font-size="12.00" fill="#000000">^</text>
</g>
<!-- Node0x60000065d140&#45;&gt;Node0x60000065d160 -->
<g id="edge1" class="edge">
<title>Node0x60000065d140&#45;&gt;Node0x60000065d160</title>
<path fill="none" stroke="black" stroke-width="1.1" d="M65,-327.31C65,-309.6 65,-281.85 65,-261.88"/>
<polygon fill="black" stroke="black" stroke-width="1.1" points="67.45,-261.65 65,-254.65 62.55,-261.65 67.45,-261.65"/>
</g>
<!-- Node0x60000065d180 -->
<g id="node3" class="node">
<title>Node0x60000065d180</title>
<polygon fill="#ffffff" stroke="#000000" stroke-width="2" points="0,-109.5 0,-145.5 54,-145.5 54,-109.5 0,-109.5"/>
<text text-anchor="middle" x="27" y="-124.4" font-family="Arial" font-size="12.00" fill="#000000">x</text>
</g>
<!-- Node0x60000065d160&#45;&gt;Node0x60000065d180 -->
<g id="edge2" class="edge">
<title>Node0x60000065d160&#45;&gt;Node0x60000065d180</title>
<path fill="none" stroke="black" stroke-width="1.1" d="M58.89,-218.31C52.55,-200.45 42.58,-172.36 35.47,-152.36"/>
<polygon fill="black" stroke="black" stroke-width="1.1" points="37.74,-151.43 33.09,-145.65 33.12,-153.07 37.74,-151.43"/>
</g>
<!-- Node0x60000065d1a0 -->
<g id="node4" class="node">
<title>Node0x60000065d1a0</title>
<polygon fill="#ffffff" stroke="#000000" stroke-width="2" points="76,-109.5 76,-145.5 130,-145.5 130,-109.5 76,-109.5"/>
<text text-anchor="middle" x="103" y="-124.4" font-family="Arial" font-size="12.00" fill="#000000">ln</text>
</g>
<!-- Node0x60000065d160&#45;&gt;Node0x60000065d1a0 -->
<g id="edge3" class="edge">
<title>Node0x60000065d160&#45;&gt;Node0x60000065d1a0</title>
<path fill="none" stroke="black" stroke-width="1.1" d="M71.11,-218.31C77.45,-200.45 87.42,-172.36 94.53,-152.36"/>
<polygon fill="black" stroke="black" stroke-width="1.1" points="96.88,-153.07 96.91,-145.65 92.26,-151.43 96.88,-153.07"/>
</g>
<!-- Node0x60000065d1c0 -->
<g id="node5" class="node">
<title>Node0x60000065d1c0</title>
<polygon fill="#ffffff" stroke="#000000" stroke-width="2" points="76,-0.5 76,-36.5 130,-36.5 130,-0.5 76,-0.5"/>
<text text-anchor="middle" x="103" y="-15.4" font-family="Arial" font-size="12.00" fill="#000000">e</text>
</g>
<!-- Node0x60000065d1a0&#45;&gt;Node0x60000065d1c0 -->
<g id="edge4" class="edge">
<title>Node0x60000065d1a0&#45;&gt;Node0x60000065d1c0</title>
<path fill="none" stroke="black" stroke-width="1.1" d="M103,-109.31C103,-91.6 103,-63.85 103,-43.88"/>
<polygon fill="black" stroke="black" stroke-width="1.1" points="105.45,-43.65 103,-36.65 100.55,-43.65 105.45,-43.65"/>
</g>
</g>
</svg>
