<?xml version="1.0" encoding="UTF-8" standalone="no"?>
<!DOCTYPE svg PUBLIC "-//W3C//DTD SVG 1.1//EN"
 "http://www.w3.org/Graphics/SVG/1.1/DTD/svg11.dtd">
<!-- Generated by graphviz version 2.50.0 (20211204.2007)
 -->
<!-- Pages: 1 -->
<svg width="332pt" height="694pt"
 viewBox="0.00 0.00 332.00 694.00" xmlns="http://www.w3.org/2000/svg" xmlns:xlink="http://www.w3.org/1999/xlink">
<g id="graph0" class="graph" transform="scale(1 1) rotate(0) translate(4 690)">
<polygon fill="white" stroke="transparent" points="-4,4 -4,-690 328,-690 328,4 -4,4"/>
<!-- Node0x6000001dc000 -->
<g id="node1" class="node">
<title>Node0x6000001dc000</title>
<polygon fill="none" stroke="black" stroke-width="2" points="234,-686 180,-686 180,-650 234,-650 234,-686"/>
<text text-anchor="middle" x="207" y="-664.3" font-family="Times,serif" font-size="14.00">d</text>
</g>
<!-- Node0x6000001dc020 -->
<g id="node2" class="node">
<title>Node0x6000001dc020</title>
<polygon fill="none" stroke="black" stroke-width="2" points="189,-556 135,-556 135,-520 189,-520 189,-556"/>
<text text-anchor="middle" x="162" y="-534.3" font-family="Times,serif" font-size="14.00">/</text>
</g>
<!-- Node0x6000001dc000&#45;&gt;Node0x6000001dc020 -->
<g id="edge1" class="edge">
<title>Node0x6000001dc000&#45;&gt;Node0x6000001dc020</title>
<path fill="none" stroke="darkgrey" stroke-width="1.2" d="M200.93,-649.74C193.92,-629.79 182.23,-596.53 173.48,-571.66"/>
<polygon fill="darkgrey" stroke="darkgrey" stroke-width="1.2" points="178.71,-569.63 168.12,-556.4 168.14,-573.35 178.71,-569.63"/>
</g>
<!-- Node0x6000001dc180 -->
<g id="node13" class="node">
<title>Node0x6000001dc180</title>
<polygon fill="none" stroke="black" stroke-width="2" points="279,-556 225,-556 225,-520 279,-520 279,-556"/>
<text text-anchor="middle" x="252" y="-534.3" font-family="Times,serif" font-size="14.00">x</text>
</g>
<!-- Node0x6000001dc000&#45;&gt;Node0x6000001dc180 -->
<g id="edge12" class="edge">
<title>Node0x6000001dc000&#45;&gt;Node0x6000001dc180</title>
<path fill="none" stroke="darkgrey" stroke-width="1.2" d="M213.07,-649.74C220.08,-629.79 231.77,-596.53 240.52,-571.66"/>
<polygon fill="darkgrey" stroke="darkgrey" stroke-width="1.2" points="245.86,-573.35 245.88,-556.4 235.29,-569.63 245.86,-573.35"/>
</g>
<!-- Node0x6000001dc040 -->
<g id="node3" class="node">
<title>Node0x6000001dc040</title>
<polygon fill="none" stroke="black" stroke-width="2" points="144,-426 90,-426 90,-390 144,-390 144,-426"/>
<text text-anchor="middle" x="117" y="-404.3" font-family="Times,serif" font-size="14.00">sin</text>
</g>
<!-- Node0x6000001dc020&#45;&gt;Node0x6000001dc040 -->
<g id="edge2" class="edge">
<title>Node0x6000001dc020&#45;&gt;Node0x6000001dc040</title>
<path fill="none" stroke="darkgrey" stroke-width="1.2" d="M155.93,-519.74C148.92,-499.79 137.23,-466.53 128.48,-441.66"/>
<polygon fill="darkgrey" stroke="darkgrey" stroke-width="1.2" points="133.71,-439.63 123.12,-426.4 123.14,-443.35 133.71,-439.63"/>
</g>
<!-- Node0x6000001dc0c0 -->
<g id="node7" class="node">
<title>Node0x6000001dc0c0</title>
<polygon fill="none" stroke="black" stroke-width="2" points="234,-426 180,-426 180,-390 234,-390 234,-426"/>
<text text-anchor="middle" x="207" y="-404.3" font-family="Times,serif" font-size="14.00">cos</text>
</g>
<!-- Node0x6000001dc020&#45;&gt;Node0x6000001dc0c0 -->
<g id="edge6" class="edge">
<title>Node0x6000001dc020&#45;&gt;Node0x6000001dc0c0</title>
<path fill="none" stroke="darkgrey" stroke-width="1.2" d="M168.07,-519.74C175.08,-499.79 186.77,-466.53 195.52,-441.66"/>
<polygon fill="darkgrey" stroke="darkgrey" stroke-width="1.2" points="200.86,-443.35 200.88,-426.4 190.29,-439.63 200.86,-443.35"/>
</g>
<!-- Node0x6000001dc060 -->
<g id="node4" class="node">
<title>Node0x6000001dc060</title>
<polygon fill="none" stroke="black" stroke-width="2" points="144,-296 90,-296 90,-260 144,-260 144,-296"/>
<text text-anchor="middle" x="117" y="-274.3" font-family="Times,serif" font-size="14.00">^</text>
</g>
<!-- Node0x6000001dc040&#45;&gt;Node0x6000001dc060 -->
<g id="edge3" class="edge">
<title>Node0x6000001dc040&#45;&gt;Node0x6000001dc060</title>
<path fill="none" stroke="darkgrey" stroke-width="1.2" d="M117,-389.74C117,-370.08 117,-337.49 117,-312.74"/>
<polygon fill="darkgrey" stroke="darkgrey" stroke-width="1.2" points="122.6,-312.4 117,-296.4 111.4,-312.4 122.6,-312.4"/>
</g>
<!-- Node0x6000001dc080 -->
<g id="node5" class="node">
<title>Node0x6000001dc080</title>
<polygon fill="none" stroke="black" stroke-width="2" points="54,-166 0,-166 0,-130 54,-130 54,-166"/>
<text text-anchor="middle" x="27" y="-144.3" font-family="Times,serif" font-size="14.00">x</text>
</g>
<!-- Node0x6000001dc060&#45;&gt;Node0x6000001dc080 -->
<g id="edge4" class="edge">
<title>Node0x6000001dc060&#45;&gt;Node0x6000001dc080</title>
<path fill="none" stroke="darkgrey" stroke-width="1.2" d="M104.86,-259.74C90.44,-239.22 66.1,-204.61 48.47,-179.54"/>
<polygon fill="darkgrey" stroke="darkgrey" stroke-width="1.2" points="53.02,-176.27 39.23,-166.4 43.85,-182.71 53.02,-176.27"/>
</g>
<!-- Node0x6000001dc0a0 -->
<g id="node6" class="node">
<title>Node0x6000001dc0a0</title>
<polygon fill="none" stroke="black" stroke-width="2" points="144,-166 90,-166 90,-130 144,-130 144,-166"/>
<text text-anchor="middle" x="117" y="-144.3" font-family="Times,serif" font-size="14.00">5</text>
</g>
<!-- Node0x6000001dc060&#45;&gt;Node0x6000001dc0a0 -->
<g id="edge5" class="edge">
<title>Node0x6000001dc060&#45;&gt;Node0x6000001dc0a0</title>
<path fill="none" stroke="darkgrey" stroke-width="1.2" d="M117,-259.74C117,-240.08 117,-207.49 117,-182.74"/>
<polygon fill="darkgrey" stroke="darkgrey" stroke-width="1.2" points="122.6,-182.4 117,-166.4 111.4,-182.4 122.6,-182.4"/>
</g>
<!-- Node0x6000001dc0e0 -->
<g id="node8" class="node">
<title>Node0x6000001dc0e0</title>
<polygon fill="none" stroke="black" stroke-width="2" points="234,-296 180,-296 180,-260 234,-260 234,-296"/>
<text text-anchor="middle" x="207" y="-274.3" font-family="Times,serif" font-size="14.00">^</text>
</g>
<!-- Node0x6000001dc0c0&#45;&gt;Node0x6000001dc0e0 -->
<g id="edge7" class="edge">
<title>Node0x6000001dc0c0&#45;&gt;Node0x6000001dc0e0</title>
<path fill="none" stroke="darkgrey" stroke-width="1.2" d="M207,-389.74C207,-370.08 207,-337.49 207,-312.74"/>
<polygon fill="darkgrey" stroke="darkgrey" stroke-width="1.2" points="212.6,-312.4 207,-296.4 201.4,-312.4 212.6,-312.4"/>
</g>
<!-- Node0x6000001dc100 -->
<g id="node9" class="node">
<title>Node0x6000001dc100</title>
<polygon fill="none" stroke="black" stroke-width="2" points="234,-166 180,-166 180,-130 234,-130 234,-166"/>
<text text-anchor="middle" x="207" y="-144.3" font-family="Times,serif" font-size="14.00">*</text>
</g>
<!-- Node0x6000001dc0e0&#45;&gt;Node0x6000001dc100 -->
<g id="edge8" class="edge">
<title>Node0x6000001dc0e0&#45;&gt;Node0x6000001dc100</title>
<path fill="none" stroke="darkgrey" stroke-width="1.2" d="M207,-259.74C207,-240.08 207,-207.49 207,-182.74"/>
<polygon fill="darkgrey" stroke="darkgrey" stroke-width="1.2" points="212.6,-182.4 207,-166.4 201.4,-182.4 212.6,-182.4"/>
</g>
<!-- Node0x6000001dc160 -->
<g id="node12" class="node">
<title>Node0x6000001dc160</title>
<polygon fill="none" stroke="black" stroke-width="2" points="324,-166 270,-166 270,-130 324,-130 324,-166"/>
<text text-anchor="middle" x="297" y="-144.3" font-family="Times,serif" font-size="14.00">3</text>
</g>
<!-- Node0x6000001dc0e0&#45;&gt;Node0x6000001dc160 -->
<g id="edge11" class="edge">
<title>Node0x6000001dc0e0&#45;&gt;Node0x6000001dc160</title>
<path fill="none" stroke="darkgrey" stroke-width="1.2" d="M219.14,-259.74C233.56,-239.22 257.9,-204.61 275.53,-179.54"/>
<polygon fill="darkgrey" stroke="darkgrey" stroke-width="1.2" points="280.15,-182.71 284.77,-166.4 270.98,-176.27 280.15,-182.71"/>
</g>
<!-- Node0x6000001dc120 -->
<g id="node10" class="node">
<title>Node0x6000001dc120</title>
<polygon fill="none" stroke="black" stroke-width="2" points="189,-36 135,-36 135,0 189,0 189,-36"/>
<text text-anchor="middle" x="162" y="-14.3" font-family="Times,serif" font-size="14.00">5</text>
</g>
<!-- Node0x6000001dc100&#45;&gt;Node0x6000001dc120 -->
<g id="edge9" class="edge">
<title>Node0x6000001dc100&#45;&gt;Node0x6000001dc120</title>
<path fill="none" stroke="darkgrey" stroke-width="1.2" d="M200.93,-129.74C193.92,-109.79 182.23,-76.53 173.48,-51.66"/>
<polygon fill="darkgrey" stroke="darkgrey" stroke-width="1.2" points="178.71,-49.63 168.12,-36.4 168.14,-53.35 178.71,-49.63"/>
</g>
<!-- Node0x6000001dc140 -->
<g id="node11" class="node">
<title>Node0x6000001dc140</title>
<polygon fill="none" stroke="black" stroke-width="2" points="279,-36 225,-36 225,0 279,0 279,-36"/>
<text text-anchor="middle" x="252" y="-14.3" font-family="Times,serif" font-size="14.00">x</text>
</g>
<!-- Node0x6000001dc100&#45;&gt;Node0x6000001dc140 -->
<g id="edge10" class="edge">
<title>Node0x6000001dc100&#45;&gt;Node0x6000001dc140</title>
<path fill="none" stroke="darkgrey" stroke-width="1.2" d="M213.07,-129.74C220.08,-109.79 231.77,-76.53 240.52,-51.66"/>
<polygon fill="darkgrey" stroke="darkgrey" stroke-width="1.2" points="245.86,-53.35 245.88,-36.4 235.29,-49.63 245.86,-53.35"/>
</g>
</g>
</svg>
