<?xml version="1.0" encoding="UTF-8" standalone="no"?>
<!DOCTYPE svg PUBLIC "-//W3C//DTD SVG 1.1//EN"
 "http://www.w3.org/Graphics/SVG/1.1/DTD/svg11.dtd">
<!-- Generated by graphviz version 2.50.0 (20211204.2007)
 -->
<!-- Pages: 1 -->
<svg width="759pt" height="1214pt"
 viewBox="0.00 0.00 759.00 1214.00" xmlns="http://www.w3.org/2000/svg" xmlns:xlink="http://www.w3.org/1999/xlink">
<g id="graph0" class="graph" transform="scale(1 1) rotate(0) translate(4 1210)">
<polygon fill="white" stroke="transparent" points="-4,4 -4,-1210 755,-1210 755,4 -4,4"/>
<!-- Node0x600001f64060 -->
<g id="node1" class="node">
<title>Node0x600001f64060</title>
<polygon fill="none" stroke="black" stroke-width="2" points="189,-1206 135,-1206 135,-1170 189,-1170 189,-1206"/>
<text text-anchor="middle" x="162" y="-1184.3" font-family="Times,serif" font-size="14.00">+</text>
</g>
<!-- Node0x600001f642a0 -->
<g id="node2" class="node">
<title>Node0x600001f642a0</title>
<polygon fill="none" stroke="black" stroke-width="2" points="144,-1076 90,-1076 90,-1040 144,-1040 144,-1076"/>
<text text-anchor="middle" x="117" y="-1054.3" font-family="Times,serif" font-size="14.00">*</text>
</g>
<!-- Node0x600001f64060&#45;&gt;Node0x600001f642a0 -->
<g id="edge1" class="edge">
<title>Node0x600001f64060&#45;&gt;Node0x600001f642a0</title>
<path fill="none" stroke="darkgrey" stroke-width="1.2" d="M155.93,-1169.74C148.92,-1149.79 137.23,-1116.53 128.48,-1091.66"/>
<polygon fill="darkgrey" stroke="darkgrey" stroke-width="1.2" points="133.71,-1089.63 123.12,-1076.4 123.14,-1093.35 133.71,-1089.63"/>
</g>
<!-- Node0x600001f64320 -->
<g id="node11" class="node">
<title>Node0x600001f64320</title>
<polygon fill="none" stroke="black" stroke-width="2" points="234,-1076 180,-1076 180,-1040 234,-1040 234,-1076"/>
<text text-anchor="middle" x="207" y="-1054.3" font-family="Times,serif" font-size="14.00">*</text>
</g>
<!-- Node0x600001f64060&#45;&gt;Node0x600001f64320 -->
<g id="edge10" class="edge">
<title>Node0x600001f64060&#45;&gt;Node0x600001f64320</title>
<path fill="none" stroke="darkgrey" stroke-width="1.2" d="M168.07,-1169.74C175.08,-1149.79 186.77,-1116.53 195.52,-1091.66"/>
<polygon fill="darkgrey" stroke="darkgrey" stroke-width="1.2" points="200.86,-1093.35 200.88,-1076.4 190.29,-1089.63 200.86,-1093.35"/>
</g>
<!-- Node0x600001f64080 -->
<g id="node3" class="node">
<title>Node0x600001f64080</title>
<polygon fill="none" stroke="black" stroke-width="2" points="54,-946 0,-946 0,-910 54,-910 54,-946"/>
<text text-anchor="middle" x="27" y="-924.3" font-family="Times,serif" font-size="14.00">0</text>
</g>
<!-- Node0x600001f642a0&#45;&gt;Node0x600001f64080 -->
<g id="edge2" class="edge">
<title>Node0x600001f642a0&#45;&gt;Node0x600001f64080</title>
<path fill="none" stroke="darkgrey" stroke-width="1.2" d="M104.86,-1039.74C90.44,-1019.22 66.1,-984.61 48.47,-959.54"/>
<polygon fill="darkgrey" stroke="darkgrey" stroke-width="1.2" points="53.02,-956.27 39.23,-946.4 43.85,-962.71 53.02,-956.27"/>
</g>
<!-- Node0x600001f641c0 -->
<g id="node4" class="node">
<title>Node0x600001f641c0</title>
<polygon fill="none" stroke="black" stroke-width="2" points="144,-946 90,-946 90,-910 144,-910 144,-946"/>
<text text-anchor="middle" x="117" y="-924.3" font-family="Times,serif" font-size="14.00">*</text>
</g>
<!-- Node0x600001f642a0&#45;&gt;Node0x600001f641c0 -->
<g id="edge3" class="edge">
<title>Node0x600001f642a0&#45;&gt;Node0x600001f641c0</title>
<path fill="none" stroke="darkgrey" stroke-width="1.2" d="M117,-1039.74C117,-1020.08 117,-987.49 117,-962.74"/>
<polygon fill="darkgrey" stroke="darkgrey" stroke-width="1.2" points="122.6,-962.4 117,-946.4 111.4,-962.4 122.6,-962.4"/>
</g>
<!-- Node0x600001f641e0 -->
<g id="node5" class="node">
<title>Node0x600001f641e0</title>
<polygon fill="none" stroke="black" stroke-width="2" points="54,-816 0,-816 0,-780 54,-780 54,-816"/>
<text text-anchor="middle" x="27" y="-794.3" font-family="Times,serif" font-size="14.00">2</text>
</g>
<!-- Node0x600001f641c0&#45;&gt;Node0x600001f641e0 -->
<g id="edge4" class="edge">
<title>Node0x600001f641c0&#45;&gt;Node0x600001f641e0</title>
<path fill="none" stroke="darkgrey" stroke-width="1.2" d="M104.86,-909.74C90.44,-889.22 66.1,-854.61 48.47,-829.54"/>
<polygon fill="darkgrey" stroke="darkgrey" stroke-width="1.2" points="53.02,-826.27 39.23,-816.4 43.85,-832.71 53.02,-826.27"/>
</g>
<!-- Node0x600001f64200 -->
<g id="node6" class="node">
<title>Node0x600001f64200</title>
<polygon fill="none" stroke="black" stroke-width="2" points="144,-816 90,-816 90,-780 144,-780 144,-816"/>
<text text-anchor="middle" x="117" y="-794.3" font-family="Times,serif" font-size="14.00">^</text>
</g>
<!-- Node0x600001f641c0&#45;&gt;Node0x600001f64200 -->
<g id="edge5" class="edge">
<title>Node0x600001f641c0&#45;&gt;Node0x600001f64200</title>
<path fill="none" stroke="darkgrey" stroke-width="1.2" d="M117,-909.74C117,-890.08 117,-857.49 117,-832.74"/>
<polygon fill="darkgrey" stroke="darkgrey" stroke-width="1.2" points="122.6,-832.4 117,-816.4 111.4,-832.4 122.6,-832.4"/>
</g>
<!-- Node0x600001f64220 -->
<g id="node7" class="node">
<title>Node0x600001f64220</title>
<polygon fill="none" stroke="black" stroke-width="2" points="54,-686 0,-686 0,-650 54,-650 54,-686"/>
<text text-anchor="middle" x="27" y="-664.3" font-family="Times,serif" font-size="14.00">x</text>
</g>
<!-- Node0x600001f64200&#45;&gt;Node0x600001f64220 -->
<g id="edge6" class="edge">
<title>Node0x600001f64200&#45;&gt;Node0x600001f64220</title>
<path fill="none" stroke="darkgrey" stroke-width="1.2" d="M104.86,-779.74C90.44,-759.22 66.1,-724.61 48.47,-699.54"/>
<polygon fill="darkgrey" stroke="darkgrey" stroke-width="1.2" points="53.02,-696.27 39.23,-686.4 43.85,-702.71 53.02,-696.27"/>
</g>
<!-- Node0x600001f64240 -->
<g id="node8" class="node">
<title>Node0x600001f64240</title>
<polygon fill="none" stroke="black" stroke-width="2" points="144,-686 90,-686 90,-650 144,-650 144,-686"/>
<text text-anchor="middle" x="117" y="-664.3" font-family="Times,serif" font-size="14.00">&#45;</text>
</g>
<!-- Node0x600001f64200&#45;&gt;Node0x600001f64240 -->
<g id="edge7" class="edge">
<title>Node0x600001f64200&#45;&gt;Node0x600001f64240</title>
<path fill="none" stroke="darkgrey" stroke-width="1.2" d="M117,-779.74C117,-760.08 117,-727.49 117,-702.74"/>
<polygon fill="darkgrey" stroke="darkgrey" stroke-width="1.2" points="122.6,-702.4 117,-686.4 111.4,-702.4 122.6,-702.4"/>
</g>
<!-- Node0x600001f64260 -->
<g id="node9" class="node">
<title>Node0x600001f64260</title>
<polygon fill="none" stroke="black" stroke-width="2" points="99,-556 45,-556 45,-520 99,-520 99,-556"/>
<text text-anchor="middle" x="72" y="-534.3" font-family="Times,serif" font-size="14.00">2</text>
</g>
<!-- Node0x600001f64240&#45;&gt;Node0x600001f64260 -->
<g id="edge8" class="edge">
<title>Node0x600001f64240&#45;&gt;Node0x600001f64260</title>
<path fill="none" stroke="darkgrey" stroke-width="1.2" d="M110.93,-649.74C103.92,-629.79 92.23,-596.53 83.48,-571.66"/>
<polygon fill="darkgrey" stroke="darkgrey" stroke-width="1.2" points="88.71,-569.63 78.12,-556.4 78.14,-573.35 88.71,-569.63"/>
</g>
<!-- Node0x600001f64280 -->
<g id="node10" class="node">
<title>Node0x600001f64280</title>
<polygon fill="none" stroke="black" stroke-width="2" points="189,-556 135,-556 135,-520 189,-520 189,-556"/>
<text text-anchor="middle" x="162" y="-534.3" font-family="Times,serif" font-size="14.00">1</text>
</g>
<!-- Node0x600001f64240&#45;&gt;Node0x600001f64280 -->
<g id="edge9" class="edge">
<title>Node0x600001f64240&#45;&gt;Node0x600001f64280</title>
<path fill="none" stroke="darkgrey" stroke-width="1.2" d="M123.07,-649.74C130.08,-629.79 141.77,-596.53 150.52,-571.66"/>
<polygon fill="darkgrey" stroke="darkgrey" stroke-width="1.2" points="155.86,-573.35 155.88,-556.4 145.29,-569.63 155.86,-573.35"/>
</g>
<!-- Node0x600001f642c0 -->
<g id="node12" class="node">
<title>Node0x600001f642c0</title>
<polygon fill="none" stroke="black" stroke-width="2" points="234,-946 180,-946 180,-910 234,-910 234,-946"/>
<text text-anchor="middle" x="207" y="-924.3" font-family="Times,serif" font-size="14.00">1</text>
</g>
<!-- Node0x600001f64320&#45;&gt;Node0x600001f642c0 -->
<g id="edge11" class="edge">
<title>Node0x600001f64320&#45;&gt;Node0x600001f642c0</title>
<path fill="none" stroke="darkgrey" stroke-width="1.2" d="M207,-1039.74C207,-1020.08 207,-987.49 207,-962.74"/>
<polygon fill="darkgrey" stroke="darkgrey" stroke-width="1.2" points="212.6,-962.4 207,-946.4 201.4,-962.4 212.6,-962.4"/>
</g>
<!-- Node0x600001f64300 -->
<g id="node13" class="node">
<title>Node0x600001f64300</title>
<polygon fill="none" stroke="black" stroke-width="2" points="324,-946 270,-946 270,-910 324,-910 324,-946"/>
<text text-anchor="middle" x="297" y="-924.3" font-family="Times,serif" font-size="14.00">+</text>
</g>
<!-- Node0x600001f64320&#45;&gt;Node0x600001f64300 -->
<g id="edge12" class="edge">
<title>Node0x600001f64320&#45;&gt;Node0x600001f64300</title>
<path fill="none" stroke="darkgrey" stroke-width="1.2" d="M219.14,-1039.74C233.56,-1019.22 257.9,-984.61 275.53,-959.54"/>
<polygon fill="darkgrey" stroke="darkgrey" stroke-width="1.2" points="280.15,-962.71 284.77,-946.4 270.98,-956.27 280.15,-962.71"/>
</g>
<!-- Node0x600001f643e0 -->
<g id="node14" class="node">
<title>Node0x600001f643e0</title>
<polygon fill="none" stroke="black" stroke-width="2" points="324,-816 270,-816 270,-780 324,-780 324,-816"/>
<text text-anchor="middle" x="297" y="-794.3" font-family="Times,serif" font-size="14.00">*</text>
</g>
<!-- Node0x600001f64300&#45;&gt;Node0x600001f643e0 -->
<g id="edge13" class="edge">
<title>Node0x600001f64300&#45;&gt;Node0x600001f643e0</title>
<path fill="none" stroke="darkgrey" stroke-width="1.2" d="M297,-909.74C297,-890.08 297,-857.49 297,-832.74"/>
<polygon fill="darkgrey" stroke="darkgrey" stroke-width="1.2" points="302.6,-832.4 297,-816.4 291.4,-832.4 302.6,-832.4"/>
</g>
<!-- Node0x600001f64460 -->
<g id="node21" class="node">
<title>Node0x600001f64460</title>
<polygon fill="none" stroke="black" stroke-width="2" points="414,-816 360,-816 360,-780 414,-780 414,-816"/>
<text text-anchor="middle" x="387" y="-794.3" font-family="Times,serif" font-size="14.00">*</text>
</g>
<!-- Node0x600001f64300&#45;&gt;Node0x600001f64460 -->
<g id="edge20" class="edge">
<title>Node0x600001f64300&#45;&gt;Node0x600001f64460</title>
<path fill="none" stroke="darkgrey" stroke-width="1.2" d="M309.14,-909.74C323.56,-889.22 347.9,-854.61 365.53,-829.54"/>
<polygon fill="darkgrey" stroke="darkgrey" stroke-width="1.2" points="370.15,-832.71 374.77,-816.4 360.98,-826.27 370.15,-832.71"/>
</g>
<!-- Node0x600001f641a0 -->
<g id="node15" class="node">
<title>Node0x600001f641a0</title>
<polygon fill="none" stroke="black" stroke-width="2" points="234,-686 180,-686 180,-650 234,-650 234,-686"/>
<text text-anchor="middle" x="207" y="-664.3" font-family="Times,serif" font-size="14.00">0</text>
</g>
<!-- Node0x600001f643e0&#45;&gt;Node0x600001f641a0 -->
<g id="edge14" class="edge">
<title>Node0x600001f643e0&#45;&gt;Node0x600001f641a0</title>
<path fill="none" stroke="darkgrey" stroke-width="1.2" d="M284.86,-779.74C270.44,-759.22 246.1,-724.61 228.47,-699.54"/>
<polygon fill="darkgrey" stroke="darkgrey" stroke-width="1.2" points="233.02,-696.27 219.23,-686.4 223.85,-702.71 233.02,-696.27"/>
</g>
<!-- Node0x600001f64040 -->
<g id="node16" class="node">
<title>Node0x600001f64040</title>
<polygon fill="none" stroke="black" stroke-width="2" points="324,-686 270,-686 270,-650 324,-650 324,-686"/>
<text text-anchor="middle" x="297" y="-664.3" font-family="Times,serif" font-size="14.00">^</text>
</g>
<!-- Node0x600001f643e0&#45;&gt;Node0x600001f64040 -->
<g id="edge15" class="edge">
<title>Node0x600001f643e0&#45;&gt;Node0x600001f64040</title>
<path fill="none" stroke="darkgrey" stroke-width="1.2" d="M297,-779.74C297,-760.08 297,-727.49 297,-702.74"/>
<polygon fill="darkgrey" stroke="darkgrey" stroke-width="1.2" points="302.6,-702.4 297,-686.4 291.4,-702.4 302.6,-702.4"/>
</g>
<!-- Node0x600001f64360 -->
<g id="node17" class="node">
<title>Node0x600001f64360</title>
<polygon fill="none" stroke="black" stroke-width="2" points="279,-556 225,-556 225,-520 279,-520 279,-556"/>
<text text-anchor="middle" x="252" y="-534.3" font-family="Times,serif" font-size="14.00">x</text>
</g>
<!-- Node0x600001f64040&#45;&gt;Node0x600001f64360 -->
<g id="edge16" class="edge">
<title>Node0x600001f64040&#45;&gt;Node0x600001f64360</title>
<path fill="none" stroke="darkgrey" stroke-width="1.2" d="M290.93,-649.74C283.92,-629.79 272.23,-596.53 263.48,-571.66"/>
<polygon fill="darkgrey" stroke="darkgrey" stroke-width="1.2" points="268.71,-569.63 258.12,-556.4 258.14,-573.35 268.71,-569.63"/>
</g>
<!-- Node0x600001f64380 -->
<g id="node18" class="node">
<title>Node0x600001f64380</title>
<polygon fill="none" stroke="black" stroke-width="2" points="369,-556 315,-556 315,-520 369,-520 369,-556"/>
<text text-anchor="middle" x="342" y="-534.3" font-family="Times,serif" font-size="14.00">&#45;</text>
</g>
<!-- Node0x600001f64040&#45;&gt;Node0x600001f64380 -->
<g id="edge17" class="edge">
<title>Node0x600001f64040&#45;&gt;Node0x600001f64380</title>
<path fill="none" stroke="darkgrey" stroke-width="1.2" d="M303.07,-649.74C310.08,-629.79 321.77,-596.53 330.52,-571.66"/>
<polygon fill="darkgrey" stroke="darkgrey" stroke-width="1.2" points="335.86,-573.35 335.88,-556.4 325.29,-569.63 335.86,-573.35"/>
</g>
<!-- Node0x600001f643a0 -->
<g id="node19" class="node">
<title>Node0x600001f643a0</title>
<polygon fill="none" stroke="black" stroke-width="2" points="301,-426 247,-426 247,-390 301,-390 301,-426"/>
<text text-anchor="middle" x="274" y="-404.3" font-family="Times,serif" font-size="14.00">2</text>
</g>
<!-- Node0x600001f64380&#45;&gt;Node0x600001f643a0 -->
<g id="edge18" class="edge">
<title>Node0x600001f64380&#45;&gt;Node0x600001f643a0</title>
<path fill="none" stroke="darkgrey" stroke-width="1.2" d="M332.83,-519.74C322.08,-499.51 304.06,-465.58 290.78,-440.59"/>
<polygon fill="darkgrey" stroke="darkgrey" stroke-width="1.2" points="295.69,-437.9 283.24,-426.4 285.8,-443.16 295.69,-437.9"/>
</g>
<!-- Node0x600001f643c0 -->
<g id="node20" class="node">
<title>Node0x600001f643c0</title>
<polygon fill="none" stroke="black" stroke-width="2" points="391,-426 337,-426 337,-390 391,-390 391,-426"/>
<text text-anchor="middle" x="364" y="-404.3" font-family="Times,serif" font-size="14.00">1</text>
</g>
<!-- Node0x600001f64380&#45;&gt;Node0x600001f643c0 -->
<g id="edge19" class="edge">
<title>Node0x600001f64380&#45;&gt;Node0x600001f643c0</title>
<path fill="none" stroke="darkgrey" stroke-width="1.2" d="M344.97,-519.74C348.36,-499.98 354,-467.17 358.26,-442.38"/>
<polygon fill="darkgrey" stroke="darkgrey" stroke-width="1.2" points="363.82,-443.12 361.01,-426.4 352.78,-441.22 363.82,-443.12"/>
</g>
<!-- Node0x600001f64400 -->
<g id="node22" class="node">
<title>Node0x600001f64400</title>
<polygon fill="none" stroke="black" stroke-width="2" points="414,-686 360,-686 360,-650 414,-650 414,-686"/>
<text text-anchor="middle" x="387" y="-664.3" font-family="Times,serif" font-size="14.00">2</text>
</g>
<!-- Node0x600001f64460&#45;&gt;Node0x600001f64400 -->
<g id="edge21" class="edge">
<title>Node0x600001f64460&#45;&gt;Node0x600001f64400</title>
<path fill="none" stroke="darkgrey" stroke-width="1.2" d="M387,-779.74C387,-760.08 387,-727.49 387,-702.74"/>
<polygon fill="darkgrey" stroke="darkgrey" stroke-width="1.2" points="392.6,-702.4 387,-686.4 381.4,-702.4 392.6,-702.4"/>
</g>
<!-- Node0x600001f64440 -->
<g id="node23" class="node">
<title>Node0x600001f64440</title>
<polygon fill="none" stroke="black" stroke-width="2" points="504,-686 450,-686 450,-650 504,-650 504,-686"/>
<text text-anchor="middle" x="477" y="-664.3" font-family="Times,serif" font-size="14.00">*</text>
</g>
<!-- Node0x600001f64460&#45;&gt;Node0x600001f64440 -->
<g id="edge22" class="edge">
<title>Node0x600001f64460&#45;&gt;Node0x600001f64440</title>
<path fill="none" stroke="darkgrey" stroke-width="1.2" d="M399.14,-779.74C413.56,-759.22 437.9,-724.61 455.53,-699.54"/>
<polygon fill="darkgrey" stroke="darkgrey" stroke-width="1.2" points="460.15,-702.71 464.77,-686.4 450.98,-696.27 460.15,-702.71"/>
</g>
<!-- Node0x600001f64340 -->
<g id="node24" class="node">
<title>Node0x600001f64340</title>
<polygon fill="none" stroke="black" stroke-width="2" points="481,-556 427,-556 427,-520 481,-520 481,-556"/>
<text text-anchor="middle" x="454" y="-534.3" font-family="Times,serif" font-size="14.00">1</text>
</g>
<!-- Node0x600001f64440&#45;&gt;Node0x600001f64340 -->
<g id="edge23" class="edge">
<title>Node0x600001f64440&#45;&gt;Node0x600001f64340</title>
<path fill="none" stroke="darkgrey" stroke-width="1.2" d="M473.9,-649.74C470.35,-629.98 464.45,-597.17 460,-572.38"/>
<polygon fill="darkgrey" stroke="darkgrey" stroke-width="1.2" points="465.47,-571.16 457.13,-556.4 454.44,-573.14 465.47,-571.16"/>
</g>
<!-- Node0x600001f645c0 -->
<g id="node25" class="node">
<title>Node0x600001f645c0</title>
<polygon fill="none" stroke="black" stroke-width="2" points="571,-556 517,-556 517,-520 571,-520 571,-556"/>
<text text-anchor="middle" x="544" y="-534.3" font-family="Times,serif" font-size="14.00">*</text>
</g>
<!-- Node0x600001f64440&#45;&gt;Node0x600001f645c0 -->
<g id="edge24" class="edge">
<title>Node0x600001f64440&#45;&gt;Node0x600001f645c0</title>
<path fill="none" stroke="darkgrey" stroke-width="1.2" d="M486.04,-649.74C496.63,-629.51 514.39,-595.58 527.46,-570.59"/>
<polygon fill="darkgrey" stroke="darkgrey" stroke-width="1.2" points="532.43,-573.17 534.89,-556.4 522.51,-567.98 532.43,-573.17"/>
</g>
<!-- Node0x600001f642e0 -->
<g id="node26" class="node">
<title>Node0x600001f642e0</title>
<polygon fill="none" stroke="black" stroke-width="2" points="526,-426 472,-426 472,-390 526,-390 526,-426"/>
<text text-anchor="middle" x="499" y="-404.3" font-family="Times,serif" font-size="14.00">&#45;</text>
</g>
<!-- Node0x600001f645c0&#45;&gt;Node0x600001f642e0 -->
<g id="edge25" class="edge">
<title>Node0x600001f645c0&#45;&gt;Node0x600001f642e0</title>
<path fill="none" stroke="darkgrey" stroke-width="1.2" d="M537.93,-519.74C530.92,-499.79 519.23,-466.53 510.48,-441.66"/>
<polygon fill="darkgrey" stroke="darkgrey" stroke-width="1.2" points="515.71,-439.63 505.12,-426.4 505.14,-443.35 515.71,-439.63"/>
</g>
<!-- Node0x600001f645a0 -->
<g id="node29" class="node">
<title>Node0x600001f645a0</title>
<polygon fill="none" stroke="black" stroke-width="2" points="616,-426 562,-426 562,-390 616,-390 616,-426"/>
<text text-anchor="middle" x="589" y="-404.3" font-family="Times,serif" font-size="14.00">^</text>
</g>
<!-- Node0x600001f645c0&#45;&gt;Node0x600001f645a0 -->
<g id="edge28" class="edge">
<title>Node0x600001f645c0&#45;&gt;Node0x600001f645a0</title>
<path fill="none" stroke="darkgrey" stroke-width="1.2" d="M550.07,-519.74C557.08,-499.79 568.77,-466.53 577.52,-441.66"/>
<polygon fill="darkgrey" stroke="darkgrey" stroke-width="1.2" points="582.86,-443.35 582.88,-426.4 572.29,-439.63 582.86,-443.35"/>
</g>
<!-- Node0x600001f644a0 -->
<g id="node27" class="node">
<title>Node0x600001f644a0</title>
<polygon fill="none" stroke="black" stroke-width="2" points="436,-296 382,-296 382,-260 436,-260 436,-296"/>
<text text-anchor="middle" x="409" y="-274.3" font-family="Times,serif" font-size="14.00">2</text>
</g>
<!-- Node0x600001f642e0&#45;&gt;Node0x600001f644a0 -->
<g id="edge26" class="edge">
<title>Node0x600001f642e0&#45;&gt;Node0x600001f644a0</title>
<path fill="none" stroke="darkgrey" stroke-width="1.2" d="M486.86,-389.74C472.44,-369.22 448.1,-334.61 430.47,-309.54"/>
<polygon fill="darkgrey" stroke="darkgrey" stroke-width="1.2" points="435.02,-306.27 421.23,-296.4 425.85,-312.71 435.02,-306.27"/>
</g>
<!-- Node0x600001f644c0 -->
<g id="node28" class="node">
<title>Node0x600001f644c0</title>
<polygon fill="none" stroke="black" stroke-width="2" points="526,-296 472,-296 472,-260 526,-260 526,-296"/>
<text text-anchor="middle" x="499" y="-274.3" font-family="Times,serif" font-size="14.00">1</text>
</g>
<!-- Node0x600001f642e0&#45;&gt;Node0x600001f644c0 -->
<g id="edge27" class="edge">
<title>Node0x600001f642e0&#45;&gt;Node0x600001f644c0</title>
<path fill="none" stroke="darkgrey" stroke-width="1.2" d="M499,-389.74C499,-370.08 499,-337.49 499,-312.74"/>
<polygon fill="darkgrey" stroke="darkgrey" stroke-width="1.2" points="504.6,-312.4 499,-296.4 493.4,-312.4 504.6,-312.4"/>
</g>
<!-- Node0x600001f644e0 -->
<g id="node30" class="node">
<title>Node0x600001f644e0</title>
<polygon fill="none" stroke="black" stroke-width="2" points="616,-296 562,-296 562,-260 616,-260 616,-296"/>
<text text-anchor="middle" x="589" y="-274.3" font-family="Times,serif" font-size="14.00">x</text>
</g>
<!-- Node0x600001f645a0&#45;&gt;Node0x600001f644e0 -->
<g id="edge29" class="edge">
<title>Node0x600001f645a0&#45;&gt;Node0x600001f644e0</title>
<path fill="none" stroke="darkgrey" stroke-width="1.2" d="M589,-389.74C589,-370.08 589,-337.49 589,-312.74"/>
<polygon fill="darkgrey" stroke="darkgrey" stroke-width="1.2" points="594.6,-312.4 589,-296.4 583.4,-312.4 594.6,-312.4"/>
</g>
<!-- Node0x600001f64580 -->
<g id="node31" class="node">
<title>Node0x600001f64580</title>
<polygon fill="none" stroke="black" stroke-width="2" points="706,-296 652,-296 652,-260 706,-260 706,-296"/>
<text text-anchor="middle" x="679" y="-274.3" font-family="Times,serif" font-size="14.00">&#45;</text>
</g>
<!-- Node0x600001f645a0&#45;&gt;Node0x600001f64580 -->
<g id="edge30" class="edge">
<title>Node0x600001f645a0&#45;&gt;Node0x600001f64580</title>
<path fill="none" stroke="darkgrey" stroke-width="1.2" d="M601.14,-389.74C615.56,-369.22 639.9,-334.61 657.53,-309.54"/>
<polygon fill="darkgrey" stroke="darkgrey" stroke-width="1.2" points="662.15,-312.71 666.77,-296.4 652.98,-306.27 662.15,-312.71"/>
</g>
<!-- Node0x600001f64500 -->
<g id="node32" class="node">
<title>Node0x600001f64500</title>
<polygon fill="none" stroke="black" stroke-width="2" points="661,-166 607,-166 607,-130 661,-130 661,-166"/>
<text text-anchor="middle" x="634" y="-144.3" font-family="Times,serif" font-size="14.00">&#45;</text>
</g>
<!-- Node0x600001f64580&#45;&gt;Node0x600001f64500 -->
<g id="edge31" class="edge">
<title>Node0x600001f64580&#45;&gt;Node0x600001f64500</title>
<path fill="none" stroke="darkgrey" stroke-width="1.2" d="M672.93,-259.74C665.92,-239.79 654.23,-206.53 645.48,-181.66"/>
<polygon fill="darkgrey" stroke="darkgrey" stroke-width="1.2" points="650.71,-179.63 640.12,-166.4 640.14,-183.35 650.71,-179.63"/>
</g>
<!-- Node0x600001f64560 -->
<g id="node35" class="node">
<title>Node0x600001f64560</title>
<polygon fill="none" stroke="black" stroke-width="2" points="751,-166 697,-166 697,-130 751,-130 751,-166"/>
<text text-anchor="middle" x="724" y="-144.3" font-family="Times,serif" font-size="14.00">1</text>
</g>
<!-- Node0x600001f64580&#45;&gt;Node0x600001f64560 -->
<g id="edge34" class="edge">
<title>Node0x600001f64580&#45;&gt;Node0x600001f64560</title>
<path fill="none" stroke="darkgrey" stroke-width="1.2" d="M685.07,-259.74C692.08,-239.79 703.77,-206.53 712.52,-181.66"/>
<polygon fill="darkgrey" stroke="darkgrey" stroke-width="1.2" points="717.86,-183.35 717.88,-166.4 707.29,-179.63 717.86,-183.35"/>
</g>
<!-- Node0x600001f64520 -->
<g id="node33" class="node">
<title>Node0x600001f64520</title>
<polygon fill="none" stroke="black" stroke-width="2" points="616,-36 562,-36 562,0 616,0 616,-36"/>
<text text-anchor="middle" x="589" y="-14.3" font-family="Times,serif" font-size="14.00">2</text>
</g>
<!-- Node0x600001f64500&#45;&gt;Node0x600001f64520 -->
<g id="edge32" class="edge">
<title>Node0x600001f64500&#45;&gt;Node0x600001f64520</title>
<path fill="none" stroke="darkgrey" stroke-width="1.2" d="M627.93,-129.74C620.92,-109.79 609.23,-76.53 600.48,-51.66"/>
<polygon fill="darkgrey" stroke="darkgrey" stroke-width="1.2" points="605.71,-49.63 595.12,-36.4 595.14,-53.35 605.71,-49.63"/>
</g>
<!-- Node0x600001f64540 -->
<g id="node34" class="node">
<title>Node0x600001f64540</title>
<polygon fill="none" stroke="black" stroke-width="2" points="706,-36 652,-36 652,0 706,0 706,-36"/>
<text text-anchor="middle" x="679" y="-14.3" font-family="Times,serif" font-size="14.00">1</text>
</g>
<!-- Node0x600001f64500&#45;&gt;Node0x600001f64540 -->
<g id="edge33" class="edge">
<title>Node0x600001f64500&#45;&gt;Node0x600001f64540</title>
<path fill="none" stroke="darkgrey" stroke-width="1.2" d="M640.07,-129.74C647.08,-109.79 658.77,-76.53 667.52,-51.66"/>
<polygon fill="darkgrey" stroke="darkgrey" stroke-width="1.2" points="672.86,-53.35 672.88,-36.4 662.29,-49.63 672.86,-53.35"/>
</g>
</g>
</svg>
